solid OpenSCAD_Model
  facet normal -1 0 0
    outer loop
      vertex 0 0 0
      vertex 0 0 2.5
      vertex 0 90 0
    endloop
  endfacet
  facet normal -1 0 0
    outer loop
      vertex 0 90 0
      vertex 0 0 2.5
      vertex 0 90 2.5
    endloop
  endfacet
  facet normal 0 -1 0
    outer loop
      vertex 0 0 2.5
      vertex 0 0 0
      vertex 15 0 0
    endloop
  endfacet
  facet normal 0 -1 0
    outer loop
      vertex 15 0 2.5
      vertex 0 0 2.5
      vertex 15 0 0
    endloop
  endfacet
  facet normal 0 0 -1
    outer loop
      vertex 5 20 0
      vertex 0 0 0
      vertex 5.43705 24.1582 0
    endloop
  endfacet
  facet normal 0 0 -1
    outer loop
      vertex 75.4635 85.4266 0
      vertex 0 90 0
      vertex 100 90 0
    endloop
  endfacet
  facet normal 0 0 -1
    outer loop
      vertex 95 20 0
      vertex 100 90 0
      vertex 100 0 0
    endloop
  endfacet
  facet normal 0 0 -1
    outer loop
      vertex 94.563 24.1582 0
      vertex 100 90 0
      vertex 95 20 0
    endloop
  endfacet
  facet normal 0 0 -1
    outer loop
      vertex 85 0 0
      vertex 88.3826 5.1371 0
      vertex 100 0 0
    endloop
  endfacet
  facet normal 0 0 -1
    outer loop
      vertex 88.3826 5.1371 0
      vertex 91.1803 8.2443 0
      vertex 100 0 0
    endloop
  endfacet
  facet normal 0 0 -1
    outer loop
      vertex 85 80 0
      vertex 100 90 0
      vertex 94.0374 25.7758 0
    endloop
  endfacet
  facet normal 0 0 -1
    outer loop
      vertex 91.1803 8.2443 0
      vertex 93.2709 11.8653 0
      vertex 100 0 0
    endloop
  endfacet
  facet normal 0 0 -1
    outer loop
      vertex 94.0374 25.7758 0
      vertex 100 90 0
      vertex 94.563 24.1582 0
    endloop
  endfacet
  facet normal 0 0 -1
    outer loop
      vertex 93.2709 11.8653 0
      vertex 94.563 15.8418 0
      vertex 100 0 0
    endloop
  endfacet
  facet normal 0 0 -1
    outer loop
      vertex 94.563 15.8418 0
      vertex 95 20 0
      vertex 100 0 0
    endloop
  endfacet
  facet normal 0 0 -1
    outer loop
      vertex 25.4635 85.4266 0
      vertex 0 90 0
      vertex 85 80 0
    endloop
  endfacet
  facet normal 0 0 -1
    outer loop
      vertex 15 79 0
      vertex 85 80 0
      vertex 85 79 0
    endloop
  endfacet
  facet normal 0 0 -1
    outer loop
      vertex 5.96264 25.7758 0
      vertex 0 90 0
      vertex 15 80 0
    endloop
  endfacet
  facet normal 0 0 -1
    outer loop
      vertex 15 79 0
      vertex 15 80 0
      vertex 85 80 0
    endloop
  endfacet
  facet normal 0 0 -1
    outer loop
      vertex 5.43705 24.1582 0
      vertex 0 90 0
      vertex 5.96264 25.7758 0
    endloop
  endfacet
  facet normal 0 0 -1
    outer loop
      vertex 0 0 0
      vertex 0 90 0
      vertex 5.43705 24.1582 0
    endloop
  endfacet
  facet normal 0 0 -1
    outer loop
      vertex 11.6174 5.1371 0
      vertex 15 0 0
      vertex 8.81966 8.2443 0
    endloop
  endfacet
  facet normal 0 0 -1
    outer loop
      vertex 0 0 0
      vertex 5 20 0
      vertex 5.43705 15.8418 0
    endloop
  endfacet
  facet normal 0 0 -1
    outer loop
      vertex 0 0 0
      vertex 5.43705 15.8418 0
      vertex 6.72909 11.8653 0
    endloop
  endfacet
  facet normal 0 0 -1
    outer loop
      vertex 0 0 0
      vertex 6.72909 11.8653 0
      vertex 8.81966 8.2443 0
    endloop
  endfacet
  facet normal 0 0 -1
    outer loop
      vertex 0 0 0
      vertex 8.81966 8.2443 0
      vertex 15 0 0
    endloop
  endfacet
  facet normal 0 0 -1
    outer loop
      vertex 15 2.67949 0
      vertex 15 0 0
      vertex 11.6174 5.1371 0
    endloop
  endfacet
  facet normal 0 0 -1
    outer loop
      vertex 26.5 84 0
      vertex 85 80 0
      vertex 25.4635 82.5734 0
    endloop
  endfacet
  facet normal 0 0 -1
    outer loop
      vertex 15 80 0
      vertex 0 90 0
      vertex 23.7865 84.8817 0
    endloop
  endfacet
  facet normal 0 0 -1
    outer loop
      vertex 15 80 0
      vertex 23.7865 84.8817 0
      vertex 23.7865 83.1183 0
    endloop
  endfacet
  facet normal 0 0 -1
    outer loop
      vertex 15 80 0
      vertex 23.7865 83.1183 0
      vertex 25.4635 82.5734 0
    endloop
  endfacet
  facet normal 0 0 -1
    outer loop
      vertex 15 80 0
      vertex 25.4635 82.5734 0
      vertex 85 80 0
    endloop
  endfacet
  facet normal 0 0 -1
    outer loop
      vertex 25.4635 85.4266 0
      vertex 85 80 0
      vertex 26.5 84 0
    endloop
  endfacet
  facet normal 0 0 -1
    outer loop
      vertex 23.7865 84.8817 0
      vertex 0 90 0
      vertex 25.4635 85.4266 0
    endloop
  endfacet
  facet normal 0 0 -1
    outer loop
      vertex 76.5 84 0
      vertex 85 80 0
      vertex 75.4635 82.5734 0
    endloop
  endfacet
  facet normal 0 0 -1
    outer loop
      vertex 73.7865 83.1183 0
      vertex 0 90 0
      vertex 73.7865 84.8817 0
    endloop
  endfacet
  facet normal 0 0 -1
    outer loop
      vertex 75.4635 82.5734 0
      vertex 0 90 0
      vertex 73.7865 83.1183 0
    endloop
  endfacet
  facet normal 0 0 -1
    outer loop
      vertex 85 80 0
      vertex 0 90 0
      vertex 75.4635 82.5734 0
    endloop
  endfacet
  facet normal 0 0 -1
    outer loop
      vertex 75.4635 85.4266 0
      vertex 100 90 0
      vertex 76.5 84 0
    endloop
  endfacet
  facet normal 0 0 -1
    outer loop
      vertex 85 80 0
      vertex 76.5 84 0
      vertex 100 90 0
    endloop
  endfacet
  facet normal 0 0 -1
    outer loop
      vertex 73.7865 84.8817 0
      vertex 0 90 0
      vertex 75.4635 85.4266 0
    endloop
  endfacet
  facet normal 0 0 -1
    outer loop
      vertex 88.3826 5.1371 0
      vertex 85 0 0
      vertex 85 2.67949 0
    endloop
  endfacet
  facet normal 0 1 0
    outer loop
      vertex 0 90 0
      vertex 0 90 2.5
      vertex 100 90 0
    endloop
  endfacet
  facet normal 0 1 0
    outer loop
      vertex 100 90 0
      vertex 0 90 2.5
      vertex 100 90 2.5
    endloop
  endfacet
  facet normal 0 0 1
    outer loop
      vertex 11.6174 5.1371 2.5
      vertex 0 0 2.5
      vertex 15 0 2.5
    endloop
  endfacet
  facet normal 0 0 1
    outer loop
      vertex 25.4635 85.4266 2.5
      vertex 26.5 84 2.5
      vertex 85 79 2.5
    endloop
  endfacet
  facet normal 0 0 1
    outer loop
      vertex 5 20 2.5
      vertex 5.43705 24.1582 2.5
      vertex 0 90 2.5
    endloop
  endfacet
  facet normal 0 0 1
    outer loop
      vertex 8.81966 8.2443 2.5
      vertex 0 0 2.5
      vertex 11.6174 5.1371 2.5
    endloop
  endfacet
  facet normal 0 0 1
    outer loop
      vertex 6.72909 11.8653 2.5
      vertex 0 0 2.5
      vertex 8.81966 8.2443 2.5
    endloop
  endfacet
  facet normal 0 0 1
    outer loop
      vertex 5.43705 15.8418 2.5
      vertex 0 0 2.5
      vertex 6.72909 11.8653 2.5
    endloop
  endfacet
  facet normal 0 0 1
    outer loop
      vertex 5 20 2.5
      vertex 0 0 2.5
      vertex 5.43705 15.8418 2.5
    endloop
  endfacet
  facet normal 0 0 1
    outer loop
      vertex 5.43705 24.1582 2.5
      vertex 5.96264 25.7758 2.5
      vertex 0 90 2.5
    endloop
  endfacet
  facet normal 0 0 1
    outer loop
      vertex 0 90 2.5
      vertex 0 0 2.5
      vertex 5 20 2.5
    endloop
  endfacet
  facet normal 0 0 1
    outer loop
      vertex 23.7865 83.1183 2.5
      vertex 0 90 2.5
      vertex 15 80 2.5
    endloop
  endfacet
  facet normal 0 0 1
    outer loop
      vertex 15 79 2.5
      vertex 85 79 2.5
      vertex 15 80 2.5
    endloop
  endfacet
  facet normal 0 0 1
    outer loop
      vertex 85 80 2.5
      vertex 0 90 2.5
      vertex 85 79 2.5
    endloop
  endfacet
  facet normal 0 0 1
    outer loop
      vertex 75.4635 82.5734 2.5
      vertex 0 90 2.5
      vertex 85 80 2.5
    endloop
  endfacet
  facet normal 0 0 1
    outer loop
      vertex 94.563 24.1582 2.5
      vertex 85 80 2.5
      vertex 94.0374 25.7758 2.5
    endloop
  endfacet
  facet normal 0 0 1
    outer loop
      vertex 100 0 2.5
      vertex 85 80 2.5
      vertex 94.563 24.1582 2.5
    endloop
  endfacet
  facet normal 0 0 1
    outer loop
      vertex 100 0 2.5
      vertex 94.563 24.1582 2.5
      vertex 95 20 2.5
    endloop
  endfacet
  facet normal 0 0 1
    outer loop
      vertex 100 0 2.5
      vertex 95 20 2.5
      vertex 94.563 15.8418 2.5
    endloop
  endfacet
  facet normal 0 0 1
    outer loop
      vertex 100 0 2.5
      vertex 94.563 15.8418 2.5
      vertex 93.2709 11.8653 2.5
    endloop
  endfacet
  facet normal 0 0 1
    outer loop
      vertex 100 0 2.5
      vertex 93.2709 11.8653 2.5
      vertex 91.1803 8.2443 2.5
    endloop
  endfacet
  facet normal 0 0 1
    outer loop
      vertex 85 0 2.5
      vertex 91.1803 8.2443 2.5
      vertex 88.3826 5.1371 2.5
    endloop
  endfacet
  facet normal 0 0 1
    outer loop
      vertex 85 0 2.5
      vertex 88.3826 5.1371 2.5
      vertex 85 2.67949 2.5
    endloop
  endfacet
  facet normal 0 0 1
    outer loop
      vertex 100 0 2.5
      vertex 91.1803 8.2443 2.5
      vertex 85 0 2.5
    endloop
  endfacet
  facet normal 0 0 1
    outer loop
      vertex 100 90 2.5
      vertex 85 80 2.5
      vertex 100 0 2.5
    endloop
  endfacet
  facet normal 0 0 1
    outer loop
      vertex 25.4635 82.5734 2.5
      vertex 23.7865 83.1183 2.5
      vertex 15 80 2.5
    endloop
  endfacet
  facet normal 0 0 1
    outer loop
      vertex 23.7865 84.8817 2.5
      vertex 0 90 2.5
      vertex 23.7865 83.1183 2.5
    endloop
  endfacet
  facet normal 0 0 1
    outer loop
      vertex 25.4635 85.4266 2.5
      vertex 0 90 2.5
      vertex 23.7865 84.8817 2.5
    endloop
  endfacet
  facet normal 0 0 1
    outer loop
      vertex 26.5 84 2.5
      vertex 25.4635 82.5734 2.5
      vertex 85 79 2.5
    endloop
  endfacet
  facet normal 0 0 1
    outer loop
      vertex 85 79 2.5
      vertex 0 90 2.5
      vertex 25.4635 85.4266 2.5
    endloop
  endfacet
  facet normal 0 0 1
    outer loop
      vertex 75.4635 85.4266 2.5
      vertex 76.5 84 2.5
      vertex 100 90 2.5
    endloop
  endfacet
  facet normal 0 0 1
    outer loop
      vertex 85 79 2.5
      vertex 25.4635 82.5734 2.5
      vertex 15 80 2.5
    endloop
  endfacet
  facet normal 0 0 1
    outer loop
      vertex 73.7865 84.8817 2.5
      vertex 0 90 2.5
      vertex 73.7865 83.1183 2.5
    endloop
  endfacet
  facet normal 0 0 1
    outer loop
      vertex 75.4635 85.4266 2.5
      vertex 0 90 2.5
      vertex 73.7865 84.8817 2.5
    endloop
  endfacet
  facet normal 0 0 1
    outer loop
      vertex 76.5 84 2.5
      vertex 85 80 2.5
      vertex 100 90 2.5
    endloop
  endfacet
  facet normal 0 0 1
    outer loop
      vertex 100 90 2.5
      vertex 0 90 2.5
      vertex 75.4635 85.4266 2.5
    endloop
  endfacet
  facet normal 0 0 1
    outer loop
      vertex 73.7865 83.1183 2.5
      vertex 0 90 2.5
      vertex 75.4635 82.5734 2.5
    endloop
  endfacet
  facet normal 0 0 1
    outer loop
      vertex 76.5 84 2.5
      vertex 75.4635 82.5734 2.5
      vertex 85 80 2.5
    endloop
  endfacet
  facet normal 0 0 1
    outer loop
      vertex 15 2.67949 2.5
      vertex 11.6174 5.1371 2.5
      vertex 15 0 2.5
    endloop
  endfacet
  facet normal 0 0 1
    outer loop
      vertex 5.96264 25.7758 2.5
      vertex 15 80 2.5
      vertex 0 90 2.5
    endloop
  endfacet
  facet normal 1 0 0
    outer loop
      vertex 15 2.67949 0
      vertex 15 2.67949 2.5
      vertex 15 0 2.5
    endloop
  endfacet
  facet normal 1 0 0
    outer loop
      vertex 15 0 0
      vertex 15 2.67949 0
      vertex 15 0 2.5
    endloop
  endfacet
  facet normal 0.587785 0.809017 0
    outer loop
      vertex 15 2.67949 2.5
      vertex 15 2.67949 0
      vertex 11.6174 5.1371 2.5
    endloop
  endfacet
  facet normal 0.587785 0.809017 0
    outer loop
      vertex 11.6174 5.1371 2.5
      vertex 15 2.67949 0
      vertex 11.6174 5.1371 0
    endloop
  endfacet
  facet normal 0.743145 0.669131 0
    outer loop
      vertex 8.81966 8.2443 2.5
      vertex 11.6174 5.1371 2.5
      vertex 11.6174 5.1371 0
    endloop
  endfacet
  facet normal 0.743145 0.669131 0
    outer loop
      vertex 8.81966 8.2443 0
      vertex 8.81966 8.2443 2.5
      vertex 11.6174 5.1371 0
    endloop
  endfacet
  facet normal 0.866025 0.5 0
    outer loop
      vertex 6.72909 11.8653 2.5
      vertex 8.81966 8.2443 2.5
      vertex 8.81966 8.2443 0
    endloop
  endfacet
  facet normal 0.866025 0.5 0
    outer loop
      vertex 6.72909 11.8653 0
      vertex 6.72909 11.8653 2.5
      vertex 8.81966 8.2443 0
    endloop
  endfacet
  facet normal 0.951057 0.309017 0
    outer loop
      vertex 5.43705 15.8418 2.5
      vertex 6.72909 11.8653 2.5
      vertex 6.72909 11.8653 0
    endloop
  endfacet
  facet normal 0.951057 0.309017 0
    outer loop
      vertex 5.43705 15.8418 0
      vertex 5.43705 15.8418 2.5
      vertex 6.72909 11.8653 0
    endloop
  endfacet
  facet normal 0.994522 0.104528 0
    outer loop
      vertex 5 20 2.5
      vertex 5.43705 15.8418 2.5
      vertex 5.43705 15.8418 0
    endloop
  endfacet
  facet normal 0.994522 0.104528 0
    outer loop
      vertex 5 20 0
      vertex 5 20 2.5
      vertex 5.43705 15.8418 0
    endloop
  endfacet
  facet normal 0.994522 -0.104528 0
    outer loop
      vertex 5.43705 24.1582 0
      vertex 5.43705 24.1582 2.5
      vertex 5 20 2.5
    endloop
  endfacet
  facet normal 0.994522 -0.104528 0
    outer loop
      vertex 5 20 0
      vertex 5.43705 24.1582 0
      vertex 5 20 2.5
    endloop
  endfacet
  facet normal 0.951057 -0.309017 0
    outer loop
      vertex 5.96264 25.7758 0
      vertex 5.96264 25.7758 2.5
      vertex 5.43705 24.1582 2.5
    endloop
  endfacet
  facet normal 0.951057 -0.309017 0
    outer loop
      vertex 5.43705 24.1582 0
      vertex 5.96264 25.7758 0
      vertex 5.43705 24.1582 2.5
    endloop
  endfacet
  facet normal 0.986394 -0.164399 0
    outer loop
      vertex 15 80 0
      vertex 15 80 2.5
      vertex 5.96264 25.7758 2.5
    endloop
  endfacet
  facet normal 0.986394 -0.164399 0
    outer loop
      vertex 5.96264 25.7758 0
      vertex 15 80 0
      vertex 5.96264 25.7758 2.5
    endloop
  endfacet
  facet normal -1 0 0
    outer loop
      vertex 15 79 0
      vertex 15 79 2.5
      vertex 15 80 0
    endloop
  endfacet
  facet normal -1 0 0
    outer loop
      vertex 15 80 0
      vertex 15 79 2.5
      vertex 15 80 2.5
    endloop
  endfacet
  facet normal 0 -1 0
    outer loop
      vertex 85 79 0
      vertex 85 79 2.5
      vertex 15 79 2.5
    endloop
  endfacet
  facet normal 0 -1 0
    outer loop
      vertex 15 79 0
      vertex 85 79 0
      vertex 15 79 2.5
    endloop
  endfacet
  facet normal 1 0 0
    outer loop
      vertex 85 79 2.5
      vertex 85 79 0
      vertex 85 80 0
    endloop
  endfacet
  facet normal 1 0 0
    outer loop
      vertex 85 80 2.5
      vertex 85 79 2.5
      vertex 85 80 0
    endloop
  endfacet
  facet normal -0.986394 -0.164399 0
    outer loop
      vertex 94.0374 25.7758 2.5
      vertex 85 80 2.5
      vertex 94.0374 25.7758 0
    endloop
  endfacet
  facet normal -0.986394 -0.164399 0
    outer loop
      vertex 94.0374 25.7758 0
      vertex 85 80 2.5
      vertex 85 80 0
    endloop
  endfacet
  facet normal -0.951057 -0.309017 0
    outer loop
      vertex 94.563 24.1582 2.5
      vertex 94.0374 25.7758 2.5
      vertex 94.563 24.1582 0
    endloop
  endfacet
  facet normal -0.951057 -0.309017 0
    outer loop
      vertex 94.563 24.1582 0
      vertex 94.0374 25.7758 2.5
      vertex 94.0374 25.7758 0
    endloop
  endfacet
  facet normal -0.994522 -0.104528 0
    outer loop
      vertex 95 20 2.5
      vertex 94.563 24.1582 2.5
      vertex 95 20 0
    endloop
  endfacet
  facet normal -0.994522 -0.104528 0
    outer loop
      vertex 95 20 0
      vertex 94.563 24.1582 2.5
      vertex 94.563 24.1582 0
    endloop
  endfacet
  facet normal -0.994522 0.104528 0
    outer loop
      vertex 95 20 2.5
      vertex 95 20 0
      vertex 94.563 15.8418 2.5
    endloop
  endfacet
  facet normal -0.994522 0.104528 0
    outer loop
      vertex 94.563 15.8418 2.5
      vertex 95 20 0
      vertex 94.563 15.8418 0
    endloop
  endfacet
  facet normal -0.951057 0.309017 0
    outer loop
      vertex 94.563 15.8418 2.5
      vertex 94.563 15.8418 0
      vertex 93.2709 11.8653 2.5
    endloop
  endfacet
  facet normal -0.951057 0.309017 0
    outer loop
      vertex 93.2709 11.8653 2.5
      vertex 94.563 15.8418 0
      vertex 93.2709 11.8653 0
    endloop
  endfacet
  facet normal -0.866025 0.5 0
    outer loop
      vertex 93.2709 11.8653 2.5
      vertex 93.2709 11.8653 0
      vertex 91.1803 8.2443 2.5
    endloop
  endfacet
  facet normal -0.866025 0.5 0
    outer loop
      vertex 91.1803 8.2443 2.5
      vertex 93.2709 11.8653 0
      vertex 91.1803 8.2443 0
    endloop
  endfacet
  facet normal -0.743145 0.669131 0
    outer loop
      vertex 91.1803 8.2443 2.5
      vertex 91.1803 8.2443 0
      vertex 88.3826 5.1371 2.5
    endloop
  endfacet
  facet normal -0.743145 0.669131 0
    outer loop
      vertex 88.3826 5.1371 2.5
      vertex 91.1803 8.2443 0
      vertex 88.3826 5.1371 0
    endloop
  endfacet
  facet normal -0.587785 0.809017 0
    outer loop
      vertex 88.3826 5.1371 2.5
      vertex 88.3826 5.1371 0
      vertex 85 2.67949 2.5
    endloop
  endfacet
  facet normal -0.587785 0.809017 0
    outer loop
      vertex 85 2.67949 2.5
      vertex 88.3826 5.1371 0
      vertex 85 2.67949 0
    endloop
  endfacet
  facet normal -1 0 0
    outer loop
      vertex 85 2.67949 2.5
      vertex 85 2.67949 0
      vertex 85 0 2.5
    endloop
  endfacet
  facet normal -1 0 0
    outer loop
      vertex 85 0 2.5
      vertex 85 2.67949 0
      vertex 85 0 0
    endloop
  endfacet
  facet normal 0 -1 0
    outer loop
      vertex 85 0 2.5
      vertex 85 0 0
      vertex 100 0 0
    endloop
  endfacet
  facet normal 0 -1 0
    outer loop
      vertex 100 0 2.5
      vertex 85 0 2.5
      vertex 100 0 0
    endloop
  endfacet
  facet normal 1 0 0
    outer loop
      vertex 100 0 2.5
      vertex 100 0 0
      vertex 100 90 0
    endloop
  endfacet
  facet normal 1 0 0
    outer loop
      vertex 100 90 2.5
      vertex 100 0 2.5
      vertex 100 90 0
    endloop
  endfacet
  facet normal 1 0 0
    outer loop
      vertex 23.7865 84.8817 0
      vertex 23.7865 84.8817 2.5
      vertex 23.7865 83.1183 2.5
    endloop
  endfacet
  facet normal 1 0 0
    outer loop
      vertex 23.7865 83.1183 0
      vertex 23.7865 84.8817 0
      vertex 23.7865 83.1183 2.5
    endloop
  endfacet
  facet normal 0.309017 -0.951056 0
    outer loop
      vertex 25.4635 85.4266 0
      vertex 25.4635 85.4266 2.5
      vertex 23.7865 84.8817 2.5
    endloop
  endfacet
  facet normal 0.309017 -0.951056 0
    outer loop
      vertex 23.7865 84.8817 0
      vertex 25.4635 85.4266 0
      vertex 23.7865 84.8817 2.5
    endloop
  endfacet
  facet normal -0.809017 -0.587785 0
    outer loop
      vertex 26.5 84 2.5
      vertex 25.4635 85.4266 2.5
      vertex 26.5 84 0
    endloop
  endfacet
  facet normal -0.809017 -0.587785 0
    outer loop
      vertex 26.5 84 0
      vertex 25.4635 85.4266 2.5
      vertex 25.4635 85.4266 0
    endloop
  endfacet
  facet normal -0.809017 0.587785 0
    outer loop
      vertex 26.5 84 2.5
      vertex 26.5 84 0
      vertex 25.4635 82.5734 2.5
    endloop
  endfacet
  facet normal -0.809017 0.587785 0
    outer loop
      vertex 25.4635 82.5734 2.5
      vertex 26.5 84 0
      vertex 25.4635 82.5734 0
    endloop
  endfacet
  facet normal 0.309017 0.951056 0
    outer loop
      vertex 25.4635 82.5734 2.5
      vertex 25.4635 82.5734 0
      vertex 23.7865 83.1183 2.5
    endloop
  endfacet
  facet normal 0.309017 0.951056 0
    outer loop
      vertex 23.7865 83.1183 2.5
      vertex 25.4635 82.5734 0
      vertex 23.7865 83.1183 0
    endloop
  endfacet
  facet normal 0.309017 -0.951056 0
    outer loop
      vertex 75.4635 85.4266 0
      vertex 75.4635 85.4266 2.5
      vertex 73.7865 84.8817 2.5
    endloop
  endfacet
  facet normal 0.309017 -0.951056 0
    outer loop
      vertex 73.7865 84.8817 0
      vertex 75.4635 85.4266 0
      vertex 73.7865 84.8817 2.5
    endloop
  endfacet
  facet normal 1 0 0
    outer loop
      vertex 73.7865 84.8817 0
      vertex 73.7865 84.8817 2.5
      vertex 73.7865 83.1183 2.5
    endloop
  endfacet
  facet normal 1 0 0
    outer loop
      vertex 73.7865 83.1183 0
      vertex 73.7865 84.8817 0
      vertex 73.7865 83.1183 2.5
    endloop
  endfacet
  facet normal -0.809017 -0.587785 0
    outer loop
      vertex 76.5 84 2.5
      vertex 75.4635 85.4266 2.5
      vertex 76.5 84 0
    endloop
  endfacet
  facet normal -0.809017 -0.587785 0
    outer loop
      vertex 76.5 84 0
      vertex 75.4635 85.4266 2.5
      vertex 75.4635 85.4266 0
    endloop
  endfacet
  facet normal -0.809017 0.587785 0
    outer loop
      vertex 76.5 84 2.5
      vertex 76.5 84 0
      vertex 75.4635 82.5734 2.5
    endloop
  endfacet
  facet normal -0.809017 0.587785 0
    outer loop
      vertex 75.4635 82.5734 2.5
      vertex 76.5 84 0
      vertex 75.4635 82.5734 0
    endloop
  endfacet
  facet normal 0.309017 0.951056 0
    outer loop
      vertex 75.4635 82.5734 2.5
      vertex 75.4635 82.5734 0
      vertex 73.7865 83.1183 2.5
    endloop
  endfacet
  facet normal 0.309017 0.951056 0
    outer loop
      vertex 73.7865 83.1183 2.5
      vertex 75.4635 82.5734 0
      vertex 73.7865 83.1183 0
    endloop
  endfacet
endsolid OpenSCAD_Model
