solid OpenSCAD_Model
  facet normal -1 0 0
    outer loop
      vertex 0 0 0
      vertex 0 0 10
      vertex 0 90 0
    endloop
  endfacet
  facet normal -1 0 0
    outer loop
      vertex 0 90 0
      vertex 0 0 10
      vertex 0 90 10
    endloop
  endfacet
  facet normal 0 -1 0
    outer loop
      vertex 0 0 10
      vertex 0 0 0
      vertex 11.25 0 0
    endloop
  endfacet
  facet normal 0 -1 0
    outer loop
      vertex 11.25 0 10
      vertex 0 0 10
      vertex 11.25 0 0
    endloop
  endfacet
  facet normal 0 0 -1
    outer loop
      vertex 3.75 20 0
      vertex 0 0 0
      vertex 4.07779 24.1582 0
    endloop
  endfacet
  facet normal 0 0 -1
    outer loop
      vertex 63.75 80 0
      vertex 0 90 0
      vertex 75 90 0
    endloop
  endfacet
  facet normal 0 0 -1
    outer loop
      vertex 71.25 20 0
      vertex 75 90 0
      vertex 75 0 0
    endloop
  endfacet
  facet normal 0 0 -1
    outer loop
      vertex 70.9222 24.1582 0
      vertex 75 90 0
      vertex 71.25 20 0
    endloop
  endfacet
  facet normal 0 0 -1
    outer loop
      vertex 63.75 0 0
      vertex 66.287 5.1371 0
      vertex 75 0 0
    endloop
  endfacet
  facet normal 0 0 -1
    outer loop
      vertex 66.287 5.1371 0
      vertex 68.3853 8.2443 0
      vertex 75 0 0
    endloop
  endfacet
  facet normal 0 0 -1
    outer loop
      vertex 63.75 80 0
      vertex 75 90 0
      vertex 70.528 25.7758 0
    endloop
  endfacet
  facet normal 0 0 -1
    outer loop
      vertex 68.3853 8.2443 0
      vertex 69.9532 11.8653 0
      vertex 75 0 0
    endloop
  endfacet
  facet normal 0 0 -1
    outer loop
      vertex 70.528 25.7758 0
      vertex 75 90 0
      vertex 70.9222 24.1582 0
    endloop
  endfacet
  facet normal 0 0 -1
    outer loop
      vertex 69.9532 11.8653 0
      vertex 70.9222 15.8418 0
      vertex 75 0 0
    endloop
  endfacet
  facet normal 0 0 -1
    outer loop
      vertex 70.9222 15.8418 0
      vertex 71.25 20 0
      vertex 75 0 0
    endloop
  endfacet
  facet normal 0 0 -1
    outer loop
      vertex 11.25 80 0
      vertex 0 90 0
      vertex 63.75 80 0
    endloop
  endfacet
  facet normal 0 0 -1
    outer loop
      vertex 11.25 79 0
      vertex 63.75 80 0
      vertex 63.75 79 0
    endloop
  endfacet
  facet normal 0 0 -1
    outer loop
      vertex 4.47198 25.7758 0
      vertex 0 90 0
      vertex 11.25 80 0
    endloop
  endfacet
  facet normal 0 0 -1
    outer loop
      vertex 11.25 79 0
      vertex 11.25 80 0
      vertex 63.75 80 0
    endloop
  endfacet
  facet normal 0 0 -1
    outer loop
      vertex 4.07779 24.1582 0
      vertex 0 90 0
      vertex 4.47198 25.7758 0
    endloop
  endfacet
  facet normal 0 0 -1
    outer loop
      vertex 0 0 0
      vertex 0 90 0
      vertex 4.07779 24.1582 0
    endloop
  endfacet
  facet normal 0 0 -1
    outer loop
      vertex 8.71304 5.1371 0
      vertex 11.25 0 0
      vertex 6.61475 8.2443 0
    endloop
  endfacet
  facet normal 0 0 -1
    outer loop
      vertex 0 0 0
      vertex 3.75 20 0
      vertex 4.07779 15.8418 0
    endloop
  endfacet
  facet normal 0 0 -1
    outer loop
      vertex 0 0 0
      vertex 4.07779 15.8418 0
      vertex 5.04682 11.8653 0
    endloop
  endfacet
  facet normal 0 0 -1
    outer loop
      vertex 0 0 0
      vertex 5.04682 11.8653 0
      vertex 6.61475 8.2443 0
    endloop
  endfacet
  facet normal 0 0 -1
    outer loop
      vertex 0 0 0
      vertex 6.61475 8.2443 0
      vertex 11.25 0 0
    endloop
  endfacet
  facet normal 0 0 -1
    outer loop
      vertex 11.25 2.67949 0
      vertex 11.25 0 0
      vertex 8.71304 5.1371 0
    endloop
  endfacet
  facet normal 0 0 -1
    outer loop
      vertex 66.287 5.1371 0
      vertex 63.75 0 0
      vertex 63.75 2.67949 0
    endloop
  endfacet
  facet normal 0 1 0
    outer loop
      vertex 0 90 0
      vertex 0 90 10
      vertex 75 90 0
    endloop
  endfacet
  facet normal 0 1 0
    outer loop
      vertex 75 90 0
      vertex 0 90 10
      vertex 75 90 10
    endloop
  endfacet
  facet normal 0 0 1
    outer loop
      vertex 8.71304 5.1371 10
      vertex 0 0 10
      vertex 11.25 0 10
    endloop
  endfacet
  facet normal 0 0 1
    outer loop
      vertex 3.75 20 10
      vertex 4.07779 24.1582 10
      vertex 0 90 10
    endloop
  endfacet
  facet normal 0 0 1
    outer loop
      vertex 6.61475 8.2443 10
      vertex 0 0 10
      vertex 8.71304 5.1371 10
    endloop
  endfacet
  facet normal 0 0 1
    outer loop
      vertex 5.04682 11.8653 10
      vertex 0 0 10
      vertex 6.61475 8.2443 10
    endloop
  endfacet
  facet normal 0 0 1
    outer loop
      vertex 4.07779 15.8418 10
      vertex 0 0 10
      vertex 5.04682 11.8653 10
    endloop
  endfacet
  facet normal 0 0 1
    outer loop
      vertex 3.75 20 10
      vertex 0 0 10
      vertex 4.07779 15.8418 10
    endloop
  endfacet
  facet normal 0 0 1
    outer loop
      vertex 4.07779 24.1582 10
      vertex 4.47198 25.7758 10
      vertex 0 90 10
    endloop
  endfacet
  facet normal 0 0 1
    outer loop
      vertex 0 90 10
      vertex 0 0 10
      vertex 3.75 20 10
    endloop
  endfacet
  facet normal 0 0 1
    outer loop
      vertex 63.75 79 10
      vertex 0 90 10
      vertex 11.25 80 10
    endloop
  endfacet
  facet normal 0 0 1
    outer loop
      vertex 11.25 79 10
      vertex 63.75 79 10
      vertex 11.25 80 10
    endloop
  endfacet
  facet normal 0 0 1
    outer loop
      vertex 63.75 80 10
      vertex 0 90 10
      vertex 63.75 79 10
    endloop
  endfacet
  facet normal 0 0 1
    outer loop
      vertex 75 90 10
      vertex 0 90 10
      vertex 63.75 80 10
    endloop
  endfacet
  facet normal 0 0 1
    outer loop
      vertex 70.9222 24.1582 10
      vertex 63.75 80 10
      vertex 70.528 25.7758 10
    endloop
  endfacet
  facet normal 0 0 1
    outer loop
      vertex 75 0 10
      vertex 63.75 80 10
      vertex 70.9222 24.1582 10
    endloop
  endfacet
  facet normal 0 0 1
    outer loop
      vertex 75 0 10
      vertex 70.9222 24.1582 10
      vertex 71.25 20 10
    endloop
  endfacet
  facet normal 0 0 1
    outer loop
      vertex 75 0 10
      vertex 71.25 20 10
      vertex 70.9222 15.8418 10
    endloop
  endfacet
  facet normal 0 0 1
    outer loop
      vertex 75 0 10
      vertex 70.9222 15.8418 10
      vertex 69.9532 11.8653 10
    endloop
  endfacet
  facet normal 0 0 1
    outer loop
      vertex 75 0 10
      vertex 69.9532 11.8653 10
      vertex 68.3853 8.2443 10
    endloop
  endfacet
  facet normal 0 0 1
    outer loop
      vertex 63.75 0 10
      vertex 68.3853 8.2443 10
      vertex 66.287 5.1371 10
    endloop
  endfacet
  facet normal 0 0 1
    outer loop
      vertex 63.75 0 10
      vertex 66.287 5.1371 10
      vertex 63.75 2.67949 10
    endloop
  endfacet
  facet normal 0 0 1
    outer loop
      vertex 75 0 10
      vertex 68.3853 8.2443 10
      vertex 63.75 0 10
    endloop
  endfacet
  facet normal 0 0 1
    outer loop
      vertex 75 90 10
      vertex 63.75 80 10
      vertex 75 0 10
    endloop
  endfacet
  facet normal 0 0 1
    outer loop
      vertex 11.25 2.67949 10
      vertex 8.71304 5.1371 10
      vertex 11.25 0 10
    endloop
  endfacet
  facet normal 0 0 1
    outer loop
      vertex 4.47198 25.7758 10
      vertex 11.25 80 10
      vertex 0 90 10
    endloop
  endfacet
  facet normal 1 0 0
    outer loop
      vertex 11.25 2.67949 0
      vertex 11.25 2.67949 10
      vertex 11.25 0 10
    endloop
  endfacet
  facet normal 1 0 0
    outer loop
      vertex 11.25 0 0
      vertex 11.25 2.67949 0
      vertex 11.25 0 10
    endloop
  endfacet
  facet normal 0.695785 0.71825 0
    outer loop
      vertex 11.25 2.67949 10
      vertex 11.25 2.67949 0
      vertex 8.71304 5.1371 10
    endloop
  endfacet
  facet normal 0.695785 0.71825 0
    outer loop
      vertex 8.71304 5.1371 10
      vertex 11.25 2.67949 0
      vertex 8.71304 5.1371 0
    endloop
  endfacet
  facet normal 0.828732 0.559645 0
    outer loop
      vertex 6.61475 8.2443 10
      vertex 8.71304 5.1371 10
      vertex 8.71304 5.1371 0
    endloop
  endfacet
  facet normal 0.828732 0.559645 0
    outer loop
      vertex 6.61475 8.2443 0
      vertex 6.61475 8.2443 10
      vertex 8.71304 5.1371 0
    endloop
  endfacet
  facet normal 0.917663 0.39736 0
    outer loop
      vertex 5.04682 11.8653 10
      vertex 6.61475 8.2443 10
      vertex 6.61475 8.2443 0
    endloop
  endfacet
  facet normal 0.917663 0.39736 0
    outer loop
      vertex 5.04682 11.8653 0
      vertex 5.04682 11.8653 10
      vertex 6.61475 8.2443 0
    endloop
  endfacet
  facet normal 0.971568 0.236761 0
    outer loop
      vertex 4.07779 15.8418 10
      vertex 5.04682 11.8653 10
      vertex 5.04682 11.8653 0
    endloop
  endfacet
  facet normal 0.971568 0.236761 0
    outer loop
      vertex 4.07779 15.8418 0
      vertex 4.07779 15.8418 10
      vertex 5.04682 11.8653 0
    endloop
  endfacet
  facet normal 0.996907 0.0785844 0
    outer loop
      vertex 3.75 20 10
      vertex 4.07779 15.8418 10
      vertex 4.07779 15.8418 0
    endloop
  endfacet
  facet normal 0.996907 0.0785844 0
    outer loop
      vertex 3.75 20 0
      vertex 3.75 20 10
      vertex 4.07779 15.8418 0
    endloop
  endfacet
  facet normal 0.996907 -0.0785844 0
    outer loop
      vertex 4.07779 24.1582 0
      vertex 4.07779 24.1582 10
      vertex 3.75 20 10
    endloop
  endfacet
  facet normal 0.996907 -0.0785844 0
    outer loop
      vertex 3.75 20 0
      vertex 4.07779 24.1582 0
      vertex 3.75 20 10
    endloop
  endfacet
  facet normal 0.971568 -0.236761 0
    outer loop
      vertex 4.47198 25.7758 0
      vertex 4.47198 25.7758 10
      vertex 4.07779 24.1582 10
    endloop
  endfacet
  facet normal 0.971568 -0.236761 0
    outer loop
      vertex 4.07779 24.1582 0
      vertex 4.47198 25.7758 0
      vertex 4.07779 24.1582 10
    endloop
  endfacet
  facet normal 0.992278 -0.124035 0
    outer loop
      vertex 11.25 80 0
      vertex 11.25 80 10
      vertex 4.47198 25.7758 10
    endloop
  endfacet
  facet normal 0.992278 -0.124035 0
    outer loop
      vertex 4.47198 25.7758 0
      vertex 11.25 80 0
      vertex 4.47198 25.7758 10
    endloop
  endfacet
  facet normal -1 0 0
    outer loop
      vertex 11.25 79 0
      vertex 11.25 79 10
      vertex 11.25 80 0
    endloop
  endfacet
  facet normal -1 0 0
    outer loop
      vertex 11.25 80 0
      vertex 11.25 79 10
      vertex 11.25 80 10
    endloop
  endfacet
  facet normal 0 -1 0
    outer loop
      vertex 63.75 79 0
      vertex 63.75 79 10
      vertex 11.25 79 10
    endloop
  endfacet
  facet normal 0 -1 0
    outer loop
      vertex 11.25 79 0
      vertex 63.75 79 0
      vertex 11.25 79 10
    endloop
  endfacet
  facet normal 1 0 0
    outer loop
      vertex 63.75 79 10
      vertex 63.75 79 0
      vertex 63.75 80 0
    endloop
  endfacet
  facet normal 1 0 0
    outer loop
      vertex 63.75 80 10
      vertex 63.75 79 10
      vertex 63.75 80 0
    endloop
  endfacet
  facet normal -0.992278 -0.124035 0
    outer loop
      vertex 70.528 25.7758 10
      vertex 63.75 80 10
      vertex 70.528 25.7758 0
    endloop
  endfacet
  facet normal -0.992278 -0.124035 0
    outer loop
      vertex 70.528 25.7758 0
      vertex 63.75 80 10
      vertex 63.75 80 0
    endloop
  endfacet
  facet normal -0.971568 -0.236761 0
    outer loop
      vertex 70.9222 24.1582 10
      vertex 70.528 25.7758 10
      vertex 70.9222 24.1582 0
    endloop
  endfacet
  facet normal -0.971568 -0.236761 0
    outer loop
      vertex 70.9222 24.1582 0
      vertex 70.528 25.7758 10
      vertex 70.528 25.7758 0
    endloop
  endfacet
  facet normal -0.996907 -0.0785844 0
    outer loop
      vertex 71.25 20 10
      vertex 70.9222 24.1582 10
      vertex 71.25 20 0
    endloop
  endfacet
  facet normal -0.996907 -0.0785844 0
    outer loop
      vertex 71.25 20 0
      vertex 70.9222 24.1582 10
      vertex 70.9222 24.1582 0
    endloop
  endfacet
  facet normal -0.996907 0.0785844 0
    outer loop
      vertex 71.25 20 10
      vertex 71.25 20 0
      vertex 70.9222 15.8418 10
    endloop
  endfacet
  facet normal -0.996907 0.0785844 0
    outer loop
      vertex 70.9222 15.8418 10
      vertex 71.25 20 0
      vertex 70.9222 15.8418 0
    endloop
  endfacet
  facet normal -0.971568 0.236761 0
    outer loop
      vertex 70.9222 15.8418 10
      vertex 70.9222 15.8418 0
      vertex 69.9532 11.8653 10
    endloop
  endfacet
  facet normal -0.971568 0.236761 0
    outer loop
      vertex 69.9532 11.8653 10
      vertex 70.9222 15.8418 0
      vertex 69.9532 11.8653 0
    endloop
  endfacet
  facet normal -0.917663 0.39736 0
    outer loop
      vertex 69.9532 11.8653 10
      vertex 69.9532 11.8653 0
      vertex 68.3853 8.2443 10
    endloop
  endfacet
  facet normal -0.917663 0.39736 0
    outer loop
      vertex 68.3853 8.2443 10
      vertex 69.9532 11.8653 0
      vertex 68.3853 8.2443 0
    endloop
  endfacet
  facet normal -0.828732 0.559645 0
    outer loop
      vertex 68.3853 8.2443 10
      vertex 68.3853 8.2443 0
      vertex 66.287 5.1371 10
    endloop
  endfacet
  facet normal -0.828732 0.559645 0
    outer loop
      vertex 66.287 5.1371 10
      vertex 68.3853 8.2443 0
      vertex 66.287 5.1371 0
    endloop
  endfacet
  facet normal -0.695785 0.71825 0
    outer loop
      vertex 66.287 5.1371 10
      vertex 66.287 5.1371 0
      vertex 63.75 2.67949 10
    endloop
  endfacet
  facet normal -0.695785 0.71825 0
    outer loop
      vertex 63.75 2.67949 10
      vertex 66.287 5.1371 0
      vertex 63.75 2.67949 0
    endloop
  endfacet
  facet normal -1 0 0
    outer loop
      vertex 63.75 2.67949 10
      vertex 63.75 2.67949 0
      vertex 63.75 0 10
    endloop
  endfacet
  facet normal -1 0 0
    outer loop
      vertex 63.75 0 10
      vertex 63.75 2.67949 0
      vertex 63.75 0 0
    endloop
  endfacet
  facet normal 0 -1 0
    outer loop
      vertex 63.75 0 10
      vertex 63.75 0 0
      vertex 75 0 0
    endloop
  endfacet
  facet normal 0 -1 0
    outer loop
      vertex 75 0 10
      vertex 63.75 0 10
      vertex 75 0 0
    endloop
  endfacet
  facet normal 1 0 0
    outer loop
      vertex 75 0 10
      vertex 75 0 0
      vertex 75 90 0
    endloop
  endfacet
  facet normal 1 0 0
    outer loop
      vertex 75 90 10
      vertex 75 0 10
      vertex 75 90 0
    endloop
  endfacet
endsolid OpenSCAD_Model
