solid OpenSCAD_Model
  facet normal -1 0 0
    outer loop
      vertex 0 0 0
      vertex 0 0 25
      vertex 0 15 2.5
    endloop
  endfacet
  facet normal -1 0 0
    outer loop
      vertex 0 0 0
      vertex 0 15 2.5
      vertex 0 68 0
    endloop
  endfacet
  facet normal -1 0 0
    outer loop
      vertex 0 8.68882 19.6137
      vertex 0 15 2.5
      vertex 0 7.5 18.75
    endloop
  endfacet
  facet normal -1 0 0
    outer loop
      vertex 0 6.31118 19.6137
      vertex 0 0 25
      vertex 0 6.76527 21.0113
    endloop
  endfacet
  facet normal -1 0 0
    outer loop
      vertex 0 15 2.5
      vertex 0 0 25
      vertex 0 6.31118 19.6137
    endloop
  endfacet
  facet normal -1 0 0
    outer loop
      vertex 0 15 2.5
      vertex 0 6.31118 19.6137
      vertex 0 7.5 18.75
    endloop
  endfacet
  facet normal -1 0 0
    outer loop
      vertex 0 68 2.5
      vertex 0 68 0
      vertex 0 15 2.5
    endloop
  endfacet
  facet normal -1 0 0
    outer loop
      vertex 0 6.76527 21.0113
      vertex 0 0 25
      vertex 0 8.23473 21.0113
    endloop
  endfacet
  facet normal -1 0 0
    outer loop
      vertex 0 15 2.5
      vertex 0 8.68882 19.6137
      vertex 0 8.23473 21.0113
    endloop
  endfacet
  facet normal -1 0 0
    outer loop
      vertex 0 8.23473 21.0113
      vertex 0 0 25
      vertex 0 15 25
    endloop
  endfacet
  facet normal -1 0 0
    outer loop
      vertex 0 15 2.5
      vertex 0 8.23473 21.0113
      vertex 0 15 25
    endloop
  endfacet
  facet normal 0 -1 0
    outer loop
      vertex 2.5 0 2.5
      vertex 0 0 0
      vertex 70 0 0
    endloop
  endfacet
  facet normal 0 -1 0
    outer loop
      vertex 2.5 0 2.5
      vertex 2.5 0 25
      vertex 0 0 25
    endloop
  endfacet
  facet normal 0 -1 0
    outer loop
      vertex 70 0 25
      vertex 67.5 0 25
      vertex 70 0 0
    endloop
  endfacet
  facet normal 0 -1 0
    outer loop
      vertex 67.5 0 25
      vertex 67.5 0 2.5
      vertex 70 0 0
    endloop
  endfacet
  facet normal 0 -1 0
    outer loop
      vertex 0 0 25
      vertex 0 0 0
      vertex 2.5 0 2.5
    endloop
  endfacet
  facet normal 0 -1 0
    outer loop
      vertex 67.5 0 2.5
      vertex 2.5 0 2.5
      vertex 70 0 0
    endloop
  endfacet
  facet normal 0 0 -1
    outer loop
      vertex 65 10 0
      vertex 70 0 0
      vertex 61.247 6.56366 0
    endloop
  endfacet
  facet normal 0 0 -1
    outer loop
      vertex 59.555 64.9499 0
      vertex 0 68 0
      vertex 70 68 0
    endloop
  endfacet
  facet normal 0 0 -1
    outer loop
      vertex 0 0 0
      vertex 0 68 0
      vertex 5 58 0
    endloop
  endfacet
  facet normal 0 0 -1
    outer loop
      vertex 0 0 0
      vertex 5 58 0
      vertex 5 10 0
    endloop
  endfacet
  facet normal 0 0 -1
    outer loop
      vertex 11.247 6.56366 0
      vertex 5 10 0
      vertex 70 0 0
    endloop
  endfacet
  facet normal 0 0 -1
    outer loop
      vertex 70 0 0
      vertex 65 10 0
      vertex 70 68 0
    endloop
  endfacet
  facet normal 0 0 -1
    outer loop
      vertex 11.247 64.5637 0
      vertex 0 68 0
      vertex 65 58 0
    endloop
  endfacet
  facet normal 0 0 -1
    outer loop
      vertex 65 10 0
      vertex 65 58 0
      vertex 70 68 0
    endloop
  endfacet
  facet normal 0 0 -1
    outer loop
      vertex 0 0 0
      vertex 5 10 0
      vertex 8.19806 5.86777 0
    endloop
  endfacet
  facet normal 0 0 -1
    outer loop
      vertex 0 0 0
      vertex 8.19806 5.86777 0
      vertex 8.19806 4.13223 0
    endloop
  endfacet
  facet normal 0 0 -1
    outer loop
      vertex 0 0 0
      vertex 8.19806 4.13223 0
      vertex 9.55496 3.05014 0
    endloop
  endfacet
  facet normal 0 0 -1
    outer loop
      vertex 0 0 0
      vertex 9.55496 3.05014 0
      vertex 70 0 0
    endloop
  endfacet
  facet normal 0 0 -1
    outer loop
      vertex 9.55496 3.05014 0
      vertex 11.247 3.43634 0
      vertex 70 0 0
    endloop
  endfacet
  facet normal 0 0 -1
    outer loop
      vertex 11.247 6.56366 0
      vertex 70 0 0
      vertex 12 5 0
    endloop
  endfacet
  facet normal 0 0 -1
    outer loop
      vertex 9.55496 6.94986 0
      vertex 5 10 0
      vertex 11.247 6.56366 0
    endloop
  endfacet
  facet normal 0 0 -1
    outer loop
      vertex 11.247 64.5637 0
      vertex 65 58 0
      vertex 12 63 0
    endloop
  endfacet
  facet normal 0 0 -1
    outer loop
      vertex 8.19806 5.86777 0
      vertex 5 10 0
      vertex 9.55496 6.94986 0
    endloop
  endfacet
  facet normal 0 0 -1
    outer loop
      vertex 8.19806 62.1322 0
      vertex 0 68 0
      vertex 8.19806 63.8678 0
    endloop
  endfacet
  facet normal 0 0 -1
    outer loop
      vertex 65 10 0
      vertex 61.247 6.56366 0
      vertex 59.555 6.94986 0
    endloop
  endfacet
  facet normal 0 0 -1
    outer loop
      vertex 59.555 6.94986 0
      vertex 58.1981 5.86777 0
      vertex 5 10 0
    endloop
  endfacet
  facet normal 0 0 -1
    outer loop
      vertex 65 10 0
      vertex 59.555 6.94986 0
      vertex 5 10 0
    endloop
  endfacet
  facet normal 0 0 -1
    outer loop
      vertex 11.247 61.4363 0
      vertex 12 63 0
      vertex 65 58 0
    endloop
  endfacet
  facet normal 0 0 -1
    outer loop
      vertex 9.55496 64.9499 0
      vertex 0 68 0
      vertex 11.247 64.5637 0
    endloop
  endfacet
  facet normal 0 0 -1
    outer loop
      vertex 61.247 3.43634 0
      vertex 70 0 0
      vertex 59.555 3.05014 0
    endloop
  endfacet
  facet normal 0 0 -1
    outer loop
      vertex 8.19806 63.8678 0
      vertex 0 68 0
      vertex 9.55496 64.9499 0
    endloop
  endfacet
  facet normal 0 0 -1
    outer loop
      vertex 5 10 0
      vertex 58.1981 5.86777 0
      vertex 58.1981 4.13223 0
    endloop
  endfacet
  facet normal 0 0 -1
    outer loop
      vertex 5 10 0
      vertex 58.1981 4.13223 0
      vertex 59.555 3.05014 0
    endloop
  endfacet
  facet normal 0 0 -1
    outer loop
      vertex 5 10 0
      vertex 59.555 3.05014 0
      vertex 70 0 0
    endloop
  endfacet
  facet normal 0 0 -1
    outer loop
      vertex 62 5 0
      vertex 70 0 0
      vertex 61.247 3.43634 0
    endloop
  endfacet
  facet normal 0 0 -1
    outer loop
      vertex 61.247 61.4363 0
      vertex 65 58 0
      vertex 59.555 61.0501 0
    endloop
  endfacet
  facet normal 0 0 -1
    outer loop
      vertex 62 5 0
      vertex 61.247 6.56366 0
      vertex 70 0 0
    endloop
  endfacet
  facet normal 0 0 -1
    outer loop
      vertex 58.1981 62.1322 0
      vertex 0 68 0
      vertex 58.1981 63.8678 0
    endloop
  endfacet
  facet normal 0 0 -1
    outer loop
      vertex 59.555 61.0501 0
      vertex 0 68 0
      vertex 58.1981 62.1322 0
    endloop
  endfacet
  facet normal 0 0 -1
    outer loop
      vertex 65 58 0
      vertex 0 68 0
      vertex 59.555 61.0501 0
    endloop
  endfacet
  facet normal 0 0 -1
    outer loop
      vertex 59.555 64.9499 0
      vertex 70 68 0
      vertex 61.247 64.5637 0
    endloop
  endfacet
  facet normal 0 0 -1
    outer loop
      vertex 65 58 0
      vertex 61.247 61.4363 0
      vertex 70 68 0
    endloop
  endfacet
  facet normal 0 0 -1
    outer loop
      vertex 61.247 61.4363 0
      vertex 62 63 0
      vertex 70 68 0
    endloop
  endfacet
  facet normal 0 0 -1
    outer loop
      vertex 62 63 0
      vertex 61.247 64.5637 0
      vertex 70 68 0
    endloop
  endfacet
  facet normal 0 0 -1
    outer loop
      vertex 58.1981 63.8678 0
      vertex 0 68 0
      vertex 59.555 64.9499 0
    endloop
  endfacet
  facet normal 0 0 -1
    outer loop
      vertex 5 58 0
      vertex 0 68 0
      vertex 8.19806 62.1322 0
    endloop
  endfacet
  facet normal 0 0 -1
    outer loop
      vertex 5 58 0
      vertex 8.19806 62.1322 0
      vertex 9.55496 61.0501 0
    endloop
  endfacet
  facet normal 0 0 -1
    outer loop
      vertex 5 58 0
      vertex 9.55496 61.0501 0
      vertex 11.247 61.4363 0
    endloop
  endfacet
  facet normal 0 0 -1
    outer loop
      vertex 5 58 0
      vertex 11.247 61.4363 0
      vertex 65 58 0
    endloop
  endfacet
  facet normal 0 0 -1
    outer loop
      vertex 12 5 0
      vertex 70 0 0
      vertex 11.247 3.43634 0
    endloop
  endfacet
  facet normal 0 1 0
    outer loop
      vertex 0 68 0
      vertex 0 68 2.5
      vertex 70 68 0
    endloop
  endfacet
  facet normal 0 1 0
    outer loop
      vertex 70 68 0
      vertex 0 68 2.5
      vertex 70 68 2.5
    endloop
  endfacet
  facet normal 0 0 1
    outer loop
      vertex 0 68 2.5
      vertex 0 15 2.5
      vertex 2.5 15 2.5
    endloop
  endfacet
  facet normal 0 0 1
    outer loop
      vertex 5 58 2.5
      vertex 0 68 2.5
      vertex 2.5 15 2.5
    endloop
  endfacet
  facet normal 0 0 1
    outer loop
      vertex 65 58 2.5
      vertex 67.5 15 2.5
      vertex 70 15 2.5
    endloop
  endfacet
  facet normal 0 0 1
    outer loop
      vertex 59.555 64.9499 2.5
      vertex 70 68 2.5
      vertex 0 68 2.5
    endloop
  endfacet
  facet normal 0 0 1
    outer loop
      vertex 2.5 0 2.5
      vertex 5 10 2.5
      vertex 2.5 15 2.5
    endloop
  endfacet
  facet normal 0 0 1
    outer loop
      vertex 9.55496 6.94986 2.5
      vertex 67.5 0 2.5
      vertex 5 10 2.5
    endloop
  endfacet
  facet normal 0 0 1
    outer loop
      vertex 5 58 2.5
      vertex 9.55496 61.0501 2.5
      vertex 0 68 2.5
    endloop
  endfacet
  facet normal 0 0 1
    outer loop
      vertex 9.55496 64.9499 2.5
      vertex 65 58 2.5
      vertex 0 68 2.5
    endloop
  endfacet
  facet normal 0 0 1
    outer loop
      vertex 70 15 2.5
      vertex 70 68 2.5
      vertex 65 58 2.5
    endloop
  endfacet
  facet normal 0 0 1
    outer loop
      vertex 67.5 0 2.5
      vertex 67.5 15 2.5
      vertex 65 10 2.5
    endloop
  endfacet
  facet normal 0 0 1
    outer loop
      vertex 2.5 0 2.5
      vertex 8.19806 4.13223 2.5
      vertex 5 10 2.5
    endloop
  endfacet
  facet normal 0 0 1
    outer loop
      vertex 8.19806 4.13223 2.5
      vertex 8.19806 5.86777 2.5
      vertex 5 10 2.5
    endloop
  endfacet
  facet normal 0 0 1
    outer loop
      vertex 8.19806 5.86777 2.5
      vertex 9.55496 6.94986 2.5
      vertex 5 10 2.5
    endloop
  endfacet
  facet normal 0 0 1
    outer loop
      vertex 11.247 6.56366 2.5
      vertex 67.5 0 2.5
      vertex 9.55496 6.94986 2.5
    endloop
  endfacet
  facet normal 0 0 1
    outer loop
      vertex 12 5 2.5
      vertex 11.247 3.43634 2.5
      vertex 67.5 0 2.5
    endloop
  endfacet
  facet normal 0 0 1
    outer loop
      vertex 11.247 64.5637 2.5
      vertex 12 63 2.5
      vertex 65 58 2.5
    endloop
  endfacet
  facet normal 0 0 1
    outer loop
      vertex 2.5 0 2.5
      vertex 67.5 0 2.5
      vertex 11.247 3.43634 2.5
    endloop
  endfacet
  facet normal 0 0 1
    outer loop
      vertex 2.5 0 2.5
      vertex 9.55496 3.05014 2.5
      vertex 8.19806 4.13223 2.5
    endloop
  endfacet
  facet normal 0 0 1
    outer loop
      vertex 2.5 0 2.5
      vertex 11.247 3.43634 2.5
      vertex 9.55496 3.05014 2.5
    endloop
  endfacet
  facet normal 0 0 1
    outer loop
      vertex 9.55496 61.0501 2.5
      vertex 8.19806 62.1322 2.5
      vertex 0 68 2.5
    endloop
  endfacet
  facet normal 0 0 1
    outer loop
      vertex 8.19806 62.1322 2.5
      vertex 8.19806 63.8678 2.5
      vertex 0 68 2.5
    endloop
  endfacet
  facet normal 0 0 1
    outer loop
      vertex 8.19806 63.8678 2.5
      vertex 9.55496 64.9499 2.5
      vertex 0 68 2.5
    endloop
  endfacet
  facet normal 0 0 1
    outer loop
      vertex 11.247 64.5637 2.5
      vertex 65 58 2.5
      vertex 9.55496 64.9499 2.5
    endloop
  endfacet
  facet normal 0 0 1
    outer loop
      vertex 12 63 2.5
      vertex 11.247 61.4363 2.5
      vertex 65 58 2.5
    endloop
  endfacet
  facet normal 0 0 1
    outer loop
      vertex 11.247 6.56366 2.5
      vertex 12 5 2.5
      vertex 67.5 0 2.5
    endloop
  endfacet
  facet normal 0 0 1
    outer loop
      vertex 62 5 2.5
      vertex 61.247 3.43634 2.5
      vertex 67.5 0 2.5
    endloop
  endfacet
  facet normal 0 0 1
    outer loop
      vertex 5 58 2.5
      vertex 11.247 61.4363 2.5
      vertex 9.55496 61.0501 2.5
    endloop
  endfacet
  facet normal 0 0 1
    outer loop
      vertex 61.247 3.43634 2.5
      vertex 59.555 3.05014 2.5
      vertex 67.5 0 2.5
    endloop
  endfacet
  facet normal 0 0 1
    outer loop
      vertex 5 58 2.5
      vertex 65 58 2.5
      vertex 11.247 61.4363 2.5
    endloop
  endfacet
  facet normal 0 0 1
    outer loop
      vertex 67.5 0 2.5
      vertex 65 10 2.5
      vertex 61.247 6.56366 2.5
    endloop
  endfacet
  facet normal 0 0 1
    outer loop
      vertex 59.555 64.9499 2.5
      vertex 61.247 64.5637 2.5
      vertex 70 68 2.5
    endloop
  endfacet
  facet normal 0 0 1
    outer loop
      vertex 65 58 2.5
      vertex 65 10 2.5
      vertex 67.5 15 2.5
    endloop
  endfacet
  facet normal 0 0 1
    outer loop
      vertex 59.555 61.0501 2.5
      vertex 58.1981 62.1322 2.5
      vertex 0 68 2.5
    endloop
  endfacet
  facet normal 0 0 1
    outer loop
      vertex 58.1981 62.1322 2.5
      vertex 58.1981 63.8678 2.5
      vertex 0 68 2.5
    endloop
  endfacet
  facet normal 0 0 1
    outer loop
      vertex 58.1981 63.8678 2.5
      vertex 59.555 64.9499 2.5
      vertex 0 68 2.5
    endloop
  endfacet
  facet normal 0 0 1
    outer loop
      vertex 61.247 64.5637 2.5
      vertex 62 63 2.5
      vertex 70 68 2.5
    endloop
  endfacet
  facet normal 0 0 1
    outer loop
      vertex 61.247 61.4363 2.5
      vertex 59.555 61.0501 2.5
      vertex 65 58 2.5
    endloop
  endfacet
  facet normal 0 0 1
    outer loop
      vertex 65 58 2.5
      vertex 70 68 2.5
      vertex 62 63 2.5
    endloop
  endfacet
  facet normal 0 0 1
    outer loop
      vertex 65 58 2.5
      vertex 62 63 2.5
      vertex 61.247 61.4363 2.5
    endloop
  endfacet
  facet normal 0 0 1
    outer loop
      vertex 65 58 2.5
      vertex 59.555 61.0501 2.5
      vertex 0 68 2.5
    endloop
  endfacet
  facet normal 0 0 1
    outer loop
      vertex 5 10 2.5
      vertex 5 58 2.5
      vertex 2.5 15 2.5
    endloop
  endfacet
  facet normal 0 0 1
    outer loop
      vertex 61.247 6.56366 2.5
      vertex 62 5 2.5
      vertex 67.5 0 2.5
    endloop
  endfacet
  facet normal 0 0 1
    outer loop
      vertex 65 10 2.5
      vertex 59.555 6.94986 2.5
      vertex 61.247 6.56366 2.5
    endloop
  endfacet
  facet normal 0 0 1
    outer loop
      vertex 59.555 3.05014 2.5
      vertex 5 10 2.5
      vertex 67.5 0 2.5
    endloop
  endfacet
  facet normal 0 0 1
    outer loop
      vertex 58.1981 4.13223 2.5
      vertex 5 10 2.5
      vertex 59.555 3.05014 2.5
    endloop
  endfacet
  facet normal 0 0 1
    outer loop
      vertex 58.1981 5.86777 2.5
      vertex 5 10 2.5
      vertex 58.1981 4.13223 2.5
    endloop
  endfacet
  facet normal 0 0 1
    outer loop
      vertex 59.555 6.94986 2.5
      vertex 5 10 2.5
      vertex 58.1981 5.86777 2.5
    endloop
  endfacet
  facet normal 0 0 1
    outer loop
      vertex 65 10 2.5
      vertex 5 10 2.5
      vertex 59.555 6.94986 2.5
    endloop
  endfacet
  facet normal 0 1 0
    outer loop
      vertex 0 15 2.5
      vertex 0 15 25
      vertex 2.5 15 2.5
    endloop
  endfacet
  facet normal 0 1 0
    outer loop
      vertex 2.5 15 2.5
      vertex 0 15 25
      vertex 2.5 15 25
    endloop
  endfacet
  facet normal 0 0 1
    outer loop
      vertex 0 15 25
      vertex 0 0 25
      vertex 2.5 0 25
    endloop
  endfacet
  facet normal 0 0 1
    outer loop
      vertex 2.5 15 25
      vertex 0 15 25
      vertex 2.5 0 25
    endloop
  endfacet
  facet normal 6.12323e-17 0 -1
    outer loop
      vertex 2.5 8.23473 21.0113
      vertex 2.5 6.76527 21.0113
      vertex 0 8.23473 21.0113
    endloop
  endfacet
  facet normal 6.12323e-17 0 -1
    outer loop
      vertex 0 8.23473 21.0113
      vertex 2.5 6.76527 21.0113
      vertex 0 6.76527 21.0113
    endloop
  endfacet
  facet normal 1.89218e-17 0.951057 -0.309017
    outer loop
      vertex 2.5 6.76527 21.0113
      vertex 2.5 6.31118 19.6137
      vertex 0 6.76527 21.0113
    endloop
  endfacet
  facet normal 1.89218e-17 0.951057 -0.309017
    outer loop
      vertex 0 6.76527 21.0113
      vertex 2.5 6.31118 19.6137
      vertex 0 6.31118 19.6137
    endloop
  endfacet
  facet normal 1.89218e-17 -0.951057 -0.309017
    outer loop
      vertex 0 8.68882 19.6137
      vertex 2.5 8.68882 19.6137
      vertex 2.5 8.23473 21.0113
    endloop
  endfacet
  facet normal 1.89218e-17 -0.951057 -0.309017
    outer loop
      vertex 0 8.23473 21.0113
      vertex 0 8.68882 19.6137
      vertex 2.5 8.23473 21.0113
    endloop
  endfacet
  facet normal -4.9538e-17 -0.587785 0.809017
    outer loop
      vertex 2.5 7.5 18.75
      vertex 2.5 8.68882 19.6137
      vertex 0 8.68882 19.6137
    endloop
  endfacet
  facet normal -4.9538e-17 -0.587785 0.809017
    outer loop
      vertex 0 7.5 18.75
      vertex 2.5 7.5 18.75
      vertex 0 8.68882 19.6137
    endloop
  endfacet
  facet normal -4.9538e-17 0.587785 0.809017
    outer loop
      vertex 2.5 6.31118 19.6137
      vertex 2.5 7.5 18.75
      vertex 0 7.5 18.75
    endloop
  endfacet
  facet normal -4.9538e-17 0.587785 0.809017
    outer loop
      vertex 0 6.31118 19.6137
      vertex 2.5 6.31118 19.6137
      vertex 0 7.5 18.75
    endloop
  endfacet
  facet normal 1 0 0
    outer loop
      vertex 2.5 0 25
      vertex 2.5 0 2.5
      vertex 2.5 15 2.5
    endloop
  endfacet
  facet normal 1 0 0
    outer loop
      vertex 2.5 6.31118 19.6137
      vertex 2.5 0 25
      vertex 2.5 15 2.5
    endloop
  endfacet
  facet normal 1 0 0
    outer loop
      vertex 2.5 7.5 18.75
      vertex 2.5 6.31118 19.6137
      vertex 2.5 15 2.5
    endloop
  endfacet
  facet normal 1 0 0
    outer loop
      vertex 2.5 6.76527 21.0113
      vertex 2.5 0 25
      vertex 2.5 6.31118 19.6137
    endloop
  endfacet
  facet normal 1 0 0
    outer loop
      vertex 2.5 15 25
      vertex 2.5 0 25
      vertex 2.5 6.76527 21.0113
    endloop
  endfacet
  facet normal 1 0 0
    outer loop
      vertex 2.5 15 25
      vertex 2.5 6.76527 21.0113
      vertex 2.5 8.23473 21.0113
    endloop
  endfacet
  facet normal 1 0 0
    outer loop
      vertex 2.5 15 25
      vertex 2.5 8.68882 19.6137
      vertex 2.5 15 2.5
    endloop
  endfacet
  facet normal 1 0 0
    outer loop
      vertex 2.5 8.68882 19.6137
      vertex 2.5 7.5 18.75
      vertex 2.5 15 2.5
    endloop
  endfacet
  facet normal 1 0 0
    outer loop
      vertex 2.5 8.23473 21.0113
      vertex 2.5 8.68882 19.6137
      vertex 2.5 15 25
    endloop
  endfacet
  facet normal -1 0 0
    outer loop
      vertex 67.5 0 2.5
      vertex 67.5 0 25
      vertex 67.5 15 2.5
    endloop
  endfacet
  facet normal -1 0 0
    outer loop
      vertex 67.5 6.76527 21.0113
      vertex 67.5 0 25
      vertex 67.5 15 25
    endloop
  endfacet
  facet normal -1 0 0
    outer loop
      vertex 67.5 6.31118 19.6137
      vertex 67.5 0 25
      vertex 67.5 6.76527 21.0113
    endloop
  endfacet
  facet normal -1 0 0
    outer loop
      vertex 67.5 8.23473 21.0113
      vertex 67.5 6.76527 21.0113
      vertex 67.5 15 25
    endloop
  endfacet
  facet normal -1 0 0
    outer loop
      vertex 67.5 15 2.5
      vertex 67.5 0 25
      vertex 67.5 6.31118 19.6137
    endloop
  endfacet
  facet normal -1 0 0
    outer loop
      vertex 67.5 15 2.5
      vertex 67.5 6.31118 19.6137
      vertex 67.5 7.5 18.75
    endloop
  endfacet
  facet normal -1 0 0
    outer loop
      vertex 67.5 15 2.5
      vertex 67.5 8.68882 19.6137
      vertex 67.5 15 25
    endloop
  endfacet
  facet normal -1 0 0
    outer loop
      vertex 67.5 8.68882 19.6137
      vertex 67.5 8.23473 21.0113
      vertex 67.5 15 25
    endloop
  endfacet
  facet normal -1 0 0
    outer loop
      vertex 67.5 8.68882 19.6137
      vertex 67.5 15 2.5
      vertex 67.5 7.5 18.75
    endloop
  endfacet
  facet normal 0 0 1
    outer loop
      vertex 67.5 15 25
      vertex 67.5 0 25
      vertex 70 0 25
    endloop
  endfacet
  facet normal 0 0 1
    outer loop
      vertex 70 15 25
      vertex 67.5 15 25
      vertex 70 0 25
    endloop
  endfacet
  facet normal 1 0 0
    outer loop
      vertex 70 15 2.5
      vertex 70 0 0
      vertex 70 68 0
    endloop
  endfacet
  facet normal 1 0 0
    outer loop
      vertex 70 0 25
      vertex 70 0 0
      vertex 70 15 2.5
    endloop
  endfacet
  facet normal 1 0 0
    outer loop
      vertex 70 15 2.5
      vertex 70 15 25
      vertex 70 8.23473 21.0113
    endloop
  endfacet
  facet normal 1 0 0
    outer loop
      vertex 70 0 25
      vertex 70 15 2.5
      vertex 70 6.31118 19.6137
    endloop
  endfacet
  facet normal 1 0 0
    outer loop
      vertex 70 0 25
      vertex 70 6.31118 19.6137
      vertex 70 6.76527 21.0113
    endloop
  endfacet
  facet normal 1 0 0
    outer loop
      vertex 70 0 25
      vertex 70 6.76527 21.0113
      vertex 70 8.23473 21.0113
    endloop
  endfacet
  facet normal 1 0 0
    outer loop
      vertex 70 8.23473 21.0113
      vertex 70 15 25
      vertex 70 0 25
    endloop
  endfacet
  facet normal 1 0 0
    outer loop
      vertex 70 6.31118 19.6137
      vertex 70 15 2.5
      vertex 70 7.5 18.75
    endloop
  endfacet
  facet normal 1 0 0
    outer loop
      vertex 70 15 2.5
      vertex 70 8.68882 19.6137
      vertex 70 7.5 18.75
    endloop
  endfacet
  facet normal 1 0 0
    outer loop
      vertex 70 15 2.5
      vertex 70 8.23473 21.0113
      vertex 70 8.68882 19.6137
    endloop
  endfacet
  facet normal 1 0 0
    outer loop
      vertex 70 68 2.5
      vertex 70 15 2.5
      vertex 70 68 0
    endloop
  endfacet
  facet normal 1 0 0
    outer loop
      vertex 5 58 0
      vertex 5 58 2.5
      vertex 5 10 2.5
    endloop
  endfacet
  facet normal 1 0 0
    outer loop
      vertex 5 10 0
      vertex 5 58 0
      vertex 5 10 2.5
    endloop
  endfacet
  facet normal 0 -1 0
    outer loop
      vertex 65 58 0
      vertex 65 58 2.5
      vertex 5 58 2.5
    endloop
  endfacet
  facet normal 0 -1 0
    outer loop
      vertex 5 58 0
      vertex 65 58 0
      vertex 5 58 2.5
    endloop
  endfacet
  facet normal -1 0 0
    outer loop
      vertex 65 58 2.5
      vertex 65 58 0
      vertex 65 10 2.5
    endloop
  endfacet
  facet normal -1 0 0
    outer loop
      vertex 65 10 2.5
      vertex 65 58 0
      vertex 65 10 0
    endloop
  endfacet
  facet normal 0 1 0
    outer loop
      vertex 65 10 2.5
      vertex 65 10 0
      vertex 5 10 2.5
    endloop
  endfacet
  facet normal 0 1 0
    outer loop
      vertex 5 10 2.5
      vertex 65 10 0
      vertex 5 10 0
    endloop
  endfacet
  facet normal 1 0 0
    outer loop
      vertex 8.19806 5.86777 0
      vertex 8.19806 5.86777 2.5
      vertex 8.19806 4.13223 2.5
    endloop
  endfacet
  facet normal 1 0 0
    outer loop
      vertex 8.19806 4.13223 0
      vertex 8.19806 5.86777 0
      vertex 8.19806 4.13223 2.5
    endloop
  endfacet
  facet normal 0.62349 -0.781831 0
    outer loop
      vertex 9.55496 6.94986 0
      vertex 9.55496 6.94986 2.5
      vertex 8.19806 5.86777 2.5
    endloop
  endfacet
  facet normal 0.62349 -0.781831 0
    outer loop
      vertex 8.19806 5.86777 0
      vertex 9.55496 6.94986 0
      vertex 8.19806 5.86777 2.5
    endloop
  endfacet
  facet normal -0.222521 -0.974928 0
    outer loop
      vertex 11.247 6.56366 0
      vertex 11.247 6.56366 2.5
      vertex 9.55496 6.94986 2.5
    endloop
  endfacet
  facet normal -0.222521 -0.974928 0
    outer loop
      vertex 9.55496 6.94986 0
      vertex 11.247 6.56366 0
      vertex 9.55496 6.94986 2.5
    endloop
  endfacet
  facet normal -0.900969 -0.433884 0
    outer loop
      vertex 12 5 2.5
      vertex 11.247 6.56366 2.5
      vertex 12 5 0
    endloop
  endfacet
  facet normal -0.900969 -0.433884 0
    outer loop
      vertex 12 5 0
      vertex 11.247 6.56366 2.5
      vertex 11.247 6.56366 0
    endloop
  endfacet
  facet normal -0.900969 0.433884 0
    outer loop
      vertex 12 5 2.5
      vertex 12 5 0
      vertex 11.247 3.43634 2.5
    endloop
  endfacet
  facet normal -0.900969 0.433884 0
    outer loop
      vertex 11.247 3.43634 2.5
      vertex 12 5 0
      vertex 11.247 3.43634 0
    endloop
  endfacet
  facet normal -0.222521 0.974928 0
    outer loop
      vertex 11.247 3.43634 2.5
      vertex 11.247 3.43634 0
      vertex 9.55496 3.05014 2.5
    endloop
  endfacet
  facet normal -0.222521 0.974928 0
    outer loop
      vertex 9.55496 3.05014 2.5
      vertex 11.247 3.43634 0
      vertex 9.55496 3.05014 0
    endloop
  endfacet
  facet normal 0.62349 0.781831 0
    outer loop
      vertex 9.55496 3.05014 2.5
      vertex 9.55496 3.05014 0
      vertex 8.19806 4.13223 2.5
    endloop
  endfacet
  facet normal 0.62349 0.781831 0
    outer loop
      vertex 8.19806 4.13223 2.5
      vertex 9.55496 3.05014 0
      vertex 8.19806 4.13223 0
    endloop
  endfacet
  facet normal 1 0 0
    outer loop
      vertex 8.19806 63.8678 0
      vertex 8.19806 63.8678 2.5
      vertex 8.19806 62.1322 2.5
    endloop
  endfacet
  facet normal 1 0 0
    outer loop
      vertex 8.19806 62.1322 0
      vertex 8.19806 63.8678 0
      vertex 8.19806 62.1322 2.5
    endloop
  endfacet
  facet normal 0.62349 -0.781831 0
    outer loop
      vertex 9.55496 64.9499 0
      vertex 9.55496 64.9499 2.5
      vertex 8.19806 63.8678 2.5
    endloop
  endfacet
  facet normal 0.62349 -0.781831 0
    outer loop
      vertex 8.19806 63.8678 0
      vertex 9.55496 64.9499 0
      vertex 8.19806 63.8678 2.5
    endloop
  endfacet
  facet normal -0.222521 -0.974928 0
    outer loop
      vertex 11.247 64.5637 0
      vertex 11.247 64.5637 2.5
      vertex 9.55496 64.9499 2.5
    endloop
  endfacet
  facet normal -0.222521 -0.974928 0
    outer loop
      vertex 9.55496 64.9499 0
      vertex 11.247 64.5637 0
      vertex 9.55496 64.9499 2.5
    endloop
  endfacet
  facet normal -0.900969 -0.433884 0
    outer loop
      vertex 12 63 2.5
      vertex 11.247 64.5637 2.5
      vertex 12 63 0
    endloop
  endfacet
  facet normal -0.900969 -0.433884 0
    outer loop
      vertex 12 63 0
      vertex 11.247 64.5637 2.5
      vertex 11.247 64.5637 0
    endloop
  endfacet
  facet normal -0.900969 0.433884 0
    outer loop
      vertex 12 63 2.5
      vertex 12 63 0
      vertex 11.247 61.4363 2.5
    endloop
  endfacet
  facet normal -0.900969 0.433884 0
    outer loop
      vertex 11.247 61.4363 2.5
      vertex 12 63 0
      vertex 11.247 61.4363 0
    endloop
  endfacet
  facet normal -0.222521 0.974928 0
    outer loop
      vertex 11.247 61.4363 2.5
      vertex 11.247 61.4363 0
      vertex 9.55496 61.0501 2.5
    endloop
  endfacet
  facet normal -0.222521 0.974928 0
    outer loop
      vertex 9.55496 61.0501 2.5
      vertex 11.247 61.4363 0
      vertex 9.55496 61.0501 0
    endloop
  endfacet
  facet normal 0.62349 0.781831 0
    outer loop
      vertex 9.55496 61.0501 2.5
      vertex 9.55496 61.0501 0
      vertex 8.19806 62.1322 2.5
    endloop
  endfacet
  facet normal 0.62349 0.781831 0
    outer loop
      vertex 8.19806 62.1322 2.5
      vertex 9.55496 61.0501 0
      vertex 8.19806 62.1322 0
    endloop
  endfacet
  facet normal 1 0 0
    outer loop
      vertex 58.1981 5.86777 0
      vertex 58.1981 5.86777 2.5
      vertex 58.1981 4.13223 2.5
    endloop
  endfacet
  facet normal 1 0 0
    outer loop
      vertex 58.1981 4.13223 0
      vertex 58.1981 5.86777 0
      vertex 58.1981 4.13223 2.5
    endloop
  endfacet
  facet normal 0.62349 -0.781831 0
    outer loop
      vertex 59.555 6.94986 0
      vertex 59.555 6.94986 2.5
      vertex 58.1981 5.86777 2.5
    endloop
  endfacet
  facet normal 0.62349 -0.781831 0
    outer loop
      vertex 58.1981 5.86777 0
      vertex 59.555 6.94986 0
      vertex 58.1981 5.86777 2.5
    endloop
  endfacet
  facet normal -0.222521 -0.974928 0
    outer loop
      vertex 61.247 6.56366 0
      vertex 61.247 6.56366 2.5
      vertex 59.555 6.94986 2.5
    endloop
  endfacet
  facet normal -0.222521 -0.974928 0
    outer loop
      vertex 59.555 6.94986 0
      vertex 61.247 6.56366 0
      vertex 59.555 6.94986 2.5
    endloop
  endfacet
  facet normal -0.900969 -0.433884 0
    outer loop
      vertex 62 5 2.5
      vertex 61.247 6.56366 2.5
      vertex 62 5 0
    endloop
  endfacet
  facet normal -0.900969 -0.433884 0
    outer loop
      vertex 62 5 0
      vertex 61.247 6.56366 2.5
      vertex 61.247 6.56366 0
    endloop
  endfacet
  facet normal -0.900969 0.433884 0
    outer loop
      vertex 62 5 2.5
      vertex 62 5 0
      vertex 61.247 3.43634 2.5
    endloop
  endfacet
  facet normal -0.900969 0.433884 0
    outer loop
      vertex 61.247 3.43634 2.5
      vertex 62 5 0
      vertex 61.247 3.43634 0
    endloop
  endfacet
  facet normal -0.222521 0.974928 0
    outer loop
      vertex 61.247 3.43634 2.5
      vertex 61.247 3.43634 0
      vertex 59.555 3.05014 2.5
    endloop
  endfacet
  facet normal -0.222521 0.974928 0
    outer loop
      vertex 59.555 3.05014 2.5
      vertex 61.247 3.43634 0
      vertex 59.555 3.05014 0
    endloop
  endfacet
  facet normal 0.62349 0.781831 0
    outer loop
      vertex 59.555 3.05014 2.5
      vertex 59.555 3.05014 0
      vertex 58.1981 4.13223 2.5
    endloop
  endfacet
  facet normal 0.62349 0.781831 0
    outer loop
      vertex 58.1981 4.13223 2.5
      vertex 59.555 3.05014 0
      vertex 58.1981 4.13223 0
    endloop
  endfacet
  facet normal 1 0 0
    outer loop
      vertex 58.1981 63.8678 0
      vertex 58.1981 63.8678 2.5
      vertex 58.1981 62.1322 2.5
    endloop
  endfacet
  facet normal 1 0 0
    outer loop
      vertex 58.1981 62.1322 0
      vertex 58.1981 63.8678 0
      vertex 58.1981 62.1322 2.5
    endloop
  endfacet
  facet normal 0.62349 -0.781831 0
    outer loop
      vertex 59.555 64.9499 0
      vertex 59.555 64.9499 2.5
      vertex 58.1981 63.8678 2.5
    endloop
  endfacet
  facet normal 0.62349 -0.781831 0
    outer loop
      vertex 58.1981 63.8678 0
      vertex 59.555 64.9499 0
      vertex 58.1981 63.8678 2.5
    endloop
  endfacet
  facet normal -0.222521 -0.974928 0
    outer loop
      vertex 61.247 64.5637 0
      vertex 61.247 64.5637 2.5
      vertex 59.555 64.9499 2.5
    endloop
  endfacet
  facet normal -0.222521 -0.974928 0
    outer loop
      vertex 59.555 64.9499 0
      vertex 61.247 64.5637 0
      vertex 59.555 64.9499 2.5
    endloop
  endfacet
  facet normal -0.900969 -0.433884 0
    outer loop
      vertex 62 63 2.5
      vertex 61.247 64.5637 2.5
      vertex 62 63 0
    endloop
  endfacet
  facet normal -0.900969 -0.433884 0
    outer loop
      vertex 62 63 0
      vertex 61.247 64.5637 2.5
      vertex 61.247 64.5637 0
    endloop
  endfacet
  facet normal -0.900969 0.433884 0
    outer loop
      vertex 62 63 2.5
      vertex 62 63 0
      vertex 61.247 61.4363 2.5
    endloop
  endfacet
  facet normal -0.900969 0.433884 0
    outer loop
      vertex 61.247 61.4363 2.5
      vertex 62 63 0
      vertex 61.247 61.4363 0
    endloop
  endfacet
  facet normal -0.222521 0.974928 0
    outer loop
      vertex 61.247 61.4363 2.5
      vertex 61.247 61.4363 0
      vertex 59.555 61.0501 2.5
    endloop
  endfacet
  facet normal -0.222521 0.974928 0
    outer loop
      vertex 59.555 61.0501 2.5
      vertex 61.247 61.4363 0
      vertex 59.555 61.0501 0
    endloop
  endfacet
  facet normal 0.62349 0.781831 0
    outer loop
      vertex 59.555 61.0501 2.5
      vertex 59.555 61.0501 0
      vertex 58.1981 62.1322 2.5
    endloop
  endfacet
  facet normal 0.62349 0.781831 0
    outer loop
      vertex 58.1981 62.1322 2.5
      vertex 59.555 61.0501 0
      vertex 58.1981 62.1322 0
    endloop
  endfacet
  facet normal 0 1 0
    outer loop
      vertex 67.5 15 2.5
      vertex 67.5 15 25
      vertex 70 15 2.5
    endloop
  endfacet
  facet normal 0 1 0
    outer loop
      vertex 70 15 2.5
      vertex 67.5 15 25
      vertex 70 15 25
    endloop
  endfacet
  facet normal 1.89218e-17 0.951057 -0.309017
    outer loop
      vertex 70 6.76527 21.0113
      vertex 70 6.31118 19.6137
      vertex 67.5 6.76527 21.0113
    endloop
  endfacet
  facet normal 1.89218e-17 0.951057 -0.309017
    outer loop
      vertex 67.5 6.76527 21.0113
      vertex 70 6.31118 19.6137
      vertex 67.5 6.31118 19.6137
    endloop
  endfacet
  facet normal 6.12323e-17 0 -1
    outer loop
      vertex 70 8.23473 21.0113
      vertex 70 6.76527 21.0113
      vertex 67.5 8.23473 21.0113
    endloop
  endfacet
  facet normal 6.12323e-17 0 -1
    outer loop
      vertex 67.5 8.23473 21.0113
      vertex 70 6.76527 21.0113
      vertex 67.5 6.76527 21.0113
    endloop
  endfacet
  facet normal 1.89218e-17 -0.951057 -0.309017
    outer loop
      vertex 67.5 8.68882 19.6137
      vertex 70 8.68882 19.6137
      vertex 70 8.23473 21.0113
    endloop
  endfacet
  facet normal 1.89218e-17 -0.951057 -0.309017
    outer loop
      vertex 67.5 8.23473 21.0113
      vertex 67.5 8.68882 19.6137
      vertex 70 8.23473 21.0113
    endloop
  endfacet
  facet normal -4.9538e-17 -0.587785 0.809017
    outer loop
      vertex 70 7.5 18.75
      vertex 70 8.68882 19.6137
      vertex 67.5 8.68882 19.6137
    endloop
  endfacet
  facet normal -4.9538e-17 -0.587785 0.809017
    outer loop
      vertex 67.5 7.5 18.75
      vertex 70 7.5 18.75
      vertex 67.5 8.68882 19.6137
    endloop
  endfacet
  facet normal -4.9538e-17 0.587785 0.809017
    outer loop
      vertex 70 6.31118 19.6137
      vertex 70 7.5 18.75
      vertex 67.5 7.5 18.75
    endloop
  endfacet
  facet normal -4.9538e-17 0.587785 0.809017
    outer loop
      vertex 67.5 6.31118 19.6137
      vertex 70 6.31118 19.6137
      vertex 67.5 7.5 18.75
    endloop
  endfacet
endsolid OpenSCAD_Model
