solid OpenSCAD_Model
  facet normal -1 0 0
    outer loop
      vertex 0 0 0
      vertex 0 0 2.5
      vertex 0 68 0
    endloop
  endfacet
  facet normal -1 0 0
    outer loop
      vertex 0 68 0
      vertex 0 0 2.5
      vertex 0 22.5 2.5
    endloop
  endfacet
  facet normal -1 0 0
    outer loop
      vertex 0 32.5 2.5
      vertex 0 22.5 2.5
      vertex 0 22.5 35
    endloop
  endfacet
  facet normal -1 0 0
    outer loop
      vertex 0 28.3678 31.8019
      vertex 0 22.5 35
      vertex 0 32.5 35
    endloop
  endfacet
  facet normal -1 0 0
    outer loop
      vertex 0 68 0
      vertex 0 22.5 2.5
      vertex 0 32.5 2.5
    endloop
  endfacet
  facet normal -1 0 0
    outer loop
      vertex 0 25.9363 28.753
      vertex 0 32.5 2.5
      vertex 0 22.5 35
    endloop
  endfacet
  facet normal -1 0 0
    outer loop
      vertex 0 68 0
      vertex 0 32.5 2.5
      vertex 0 57.5 2.5
    endloop
  endfacet
  facet normal -1 0 0
    outer loop
      vertex 0 68 2.5
      vertex 0 68 0
      vertex 0 67.5 2.5
    endloop
  endfacet
  facet normal -1 0 0
    outer loop
      vertex 0 61.6322 31.8019
      vertex 0 57.5 35
      vertex 0 67.5 35
    endloop
  endfacet
  facet normal -1 0 0
    outer loop
      vertex 0 68 0
      vertex 0 57.5 35
      vertex 0 67.5 2.5
    endloop
  endfacet
  facet normal -1 0 0
    outer loop
      vertex 0 25.5501 30.445
      vertex 0 22.5 35
      vertex 0 26.6322 31.8019
    endloop
  endfacet
  facet normal -1 0 0
    outer loop
      vertex 0 26.6322 31.8019
      vertex 0 22.5 35
      vertex 0 28.3678 31.8019
    endloop
  endfacet
  facet normal -1 0 0
    outer loop
      vertex 0 27.5 28
      vertex 0 32.5 2.5
      vertex 0 25.9363 28.753
    endloop
  endfacet
  facet normal -1 0 0
    outer loop
      vertex 0 25.5501 30.445
      vertex 0 25.9363 28.753
      vertex 0 22.5 35
    endloop
  endfacet
  facet normal -1 0 0
    outer loop
      vertex 0 57.5 35
      vertex 0 68 0
      vertex 0 57.5 2.5
    endloop
  endfacet
  facet normal -1 0 0
    outer loop
      vertex 0 29.4499 30.445
      vertex 0 28.3678 31.8019
      vertex 0 32.5 35
    endloop
  endfacet
  facet normal -1 0 0
    outer loop
      vertex 0 60.9363 28.753
      vertex 0 57.5 35
      vertex 0 60.5501 30.445
    endloop
  endfacet
  facet normal -1 0 0
    outer loop
      vertex 0 67.5 2.5
      vertex 0 57.5 35
      vertex 0 60.9363 28.753
    endloop
  endfacet
  facet normal -1 0 0
    outer loop
      vertex 0 63.3678 31.8019
      vertex 0 67.5 35
      vertex 0 64.4499 30.445
    endloop
  endfacet
  facet normal -1 0 0
    outer loop
      vertex 0 67.5 2.5
      vertex 0 62.5 28
      vertex 0 64.0637 28.753
    endloop
  endfacet
  facet normal -1 0 0
    outer loop
      vertex 0 67.5 2.5
      vertex 0 64.0637 28.753
      vertex 0 67.5 35
    endloop
  endfacet
  facet normal -1 0 0
    outer loop
      vertex 0 64.0637 28.753
      vertex 0 64.4499 30.445
      vertex 0 67.5 35
    endloop
  endfacet
  facet normal -1 0 0
    outer loop
      vertex 0 61.6322 31.8019
      vertex 0 67.5 35
      vertex 0 63.3678 31.8019
    endloop
  endfacet
  facet normal -1 0 0
    outer loop
      vertex 0 60.5501 30.445
      vertex 0 57.5 35
      vertex 0 61.6322 31.8019
    endloop
  endfacet
  facet normal -1 0 0
    outer loop
      vertex 0 32.5 2.5
      vertex 0 27.5 28
      vertex 0 29.0637 28.753
    endloop
  endfacet
  facet normal -1 0 0
    outer loop
      vertex 0 62.5 28
      vertex 0 67.5 2.5
      vertex 0 60.9363 28.753
    endloop
  endfacet
  facet normal -1 0 0
    outer loop
      vertex 0 32.5 2.5
      vertex 0 29.0637 28.753
      vertex 0 29.4499 30.445
    endloop
  endfacet
  facet normal -1 0 0
    outer loop
      vertex 0 32.5 2.5
      vertex 0 29.4499 30.445
      vertex 0 32.5 35
    endloop
  endfacet
  facet normal 0 -1 0
    outer loop
      vertex 0 0 2.5
      vertex 0 0 0
      vertex 70 0 0
    endloop
  endfacet
  facet normal 0 -1 0
    outer loop
      vertex 70 0 2.5
      vertex 0 0 2.5
      vertex 70 0 0
    endloop
  endfacet
  facet normal 0 0 -1
    outer loop
      vertex 65 10 0
      vertex 70 0 0
      vertex 61.247 6.56366 0
    endloop
  endfacet
  facet normal 0 0 -1
    outer loop
      vertex 59.555 64.9499 0
      vertex 0 68 0
      vertex 70 68 0
    endloop
  endfacet
  facet normal 0 0 -1
    outer loop
      vertex 0 0 0
      vertex 0 68 0
      vertex 5 58 0
    endloop
  endfacet
  facet normal 0 0 -1
    outer loop
      vertex 0 0 0
      vertex 5 58 0
      vertex 5 10 0
    endloop
  endfacet
  facet normal 0 0 -1
    outer loop
      vertex 11.247 6.56366 0
      vertex 5 10 0
      vertex 70 0 0
    endloop
  endfacet
  facet normal 0 0 -1
    outer loop
      vertex 70 0 0
      vertex 65 10 0
      vertex 70 68 0
    endloop
  endfacet
  facet normal 0 0 -1
    outer loop
      vertex 11.247 64.5637 0
      vertex 0 68 0
      vertex 65 58 0
    endloop
  endfacet
  facet normal 0 0 -1
    outer loop
      vertex 65 10 0
      vertex 65 58 0
      vertex 70 68 0
    endloop
  endfacet
  facet normal 0 0 -1
    outer loop
      vertex 0 0 0
      vertex 5 10 0
      vertex 8.19806 5.86777 0
    endloop
  endfacet
  facet normal 0 0 -1
    outer loop
      vertex 0 0 0
      vertex 8.19806 5.86777 0
      vertex 8.19806 4.13223 0
    endloop
  endfacet
  facet normal 0 0 -1
    outer loop
      vertex 0 0 0
      vertex 8.19806 4.13223 0
      vertex 9.55496 3.05014 0
    endloop
  endfacet
  facet normal 0 0 -1
    outer loop
      vertex 0 0 0
      vertex 9.55496 3.05014 0
      vertex 70 0 0
    endloop
  endfacet
  facet normal 0 0 -1
    outer loop
      vertex 9.55496 3.05014 0
      vertex 11.247 3.43634 0
      vertex 70 0 0
    endloop
  endfacet
  facet normal 0 0 -1
    outer loop
      vertex 11.247 6.56366 0
      vertex 70 0 0
      vertex 12 5 0
    endloop
  endfacet
  facet normal 0 0 -1
    outer loop
      vertex 9.55496 6.94986 0
      vertex 5 10 0
      vertex 11.247 6.56366 0
    endloop
  endfacet
  facet normal 0 0 -1
    outer loop
      vertex 11.247 64.5637 0
      vertex 65 58 0
      vertex 12 63 0
    endloop
  endfacet
  facet normal 0 0 -1
    outer loop
      vertex 8.19806 5.86777 0
      vertex 5 10 0
      vertex 9.55496 6.94986 0
    endloop
  endfacet
  facet normal 0 0 -1
    outer loop
      vertex 8.19806 62.1322 0
      vertex 0 68 0
      vertex 8.19806 63.8678 0
    endloop
  endfacet
  facet normal 0 0 -1
    outer loop
      vertex 65 10 0
      vertex 61.247 6.56366 0
      vertex 59.555 6.94986 0
    endloop
  endfacet
  facet normal 0 0 -1
    outer loop
      vertex 59.555 6.94986 0
      vertex 58.1981 5.86777 0
      vertex 5 10 0
    endloop
  endfacet
  facet normal 0 0 -1
    outer loop
      vertex 65 10 0
      vertex 59.555 6.94986 0
      vertex 5 10 0
    endloop
  endfacet
  facet normal 0 0 -1
    outer loop
      vertex 11.247 61.4363 0
      vertex 12 63 0
      vertex 65 58 0
    endloop
  endfacet
  facet normal 0 0 -1
    outer loop
      vertex 9.55496 64.9499 0
      vertex 0 68 0
      vertex 11.247 64.5637 0
    endloop
  endfacet
  facet normal 0 0 -1
    outer loop
      vertex 61.247 3.43634 0
      vertex 70 0 0
      vertex 59.555 3.05014 0
    endloop
  endfacet
  facet normal 0 0 -1
    outer loop
      vertex 8.19806 63.8678 0
      vertex 0 68 0
      vertex 9.55496 64.9499 0
    endloop
  endfacet
  facet normal 0 0 -1
    outer loop
      vertex 5 10 0
      vertex 58.1981 5.86777 0
      vertex 58.1981 4.13223 0
    endloop
  endfacet
  facet normal 0 0 -1
    outer loop
      vertex 5 10 0
      vertex 58.1981 4.13223 0
      vertex 59.555 3.05014 0
    endloop
  endfacet
  facet normal 0 0 -1
    outer loop
      vertex 5 10 0
      vertex 59.555 3.05014 0
      vertex 70 0 0
    endloop
  endfacet
  facet normal 0 0 -1
    outer loop
      vertex 62 5 0
      vertex 70 0 0
      vertex 61.247 3.43634 0
    endloop
  endfacet
  facet normal 0 0 -1
    outer loop
      vertex 61.247 61.4363 0
      vertex 65 58 0
      vertex 59.555 61.0501 0
    endloop
  endfacet
  facet normal 0 0 -1
    outer loop
      vertex 62 5 0
      vertex 61.247 6.56366 0
      vertex 70 0 0
    endloop
  endfacet
  facet normal 0 0 -1
    outer loop
      vertex 58.1981 62.1322 0
      vertex 0 68 0
      vertex 58.1981 63.8678 0
    endloop
  endfacet
  facet normal 0 0 -1
    outer loop
      vertex 59.555 61.0501 0
      vertex 0 68 0
      vertex 58.1981 62.1322 0
    endloop
  endfacet
  facet normal 0 0 -1
    outer loop
      vertex 65 58 0
      vertex 0 68 0
      vertex 59.555 61.0501 0
    endloop
  endfacet
  facet normal 0 0 -1
    outer loop
      vertex 59.555 64.9499 0
      vertex 70 68 0
      vertex 61.247 64.5637 0
    endloop
  endfacet
  facet normal 0 0 -1
    outer loop
      vertex 65 58 0
      vertex 61.247 61.4363 0
      vertex 70 68 0
    endloop
  endfacet
  facet normal 0 0 -1
    outer loop
      vertex 61.247 61.4363 0
      vertex 62 63 0
      vertex 70 68 0
    endloop
  endfacet
  facet normal 0 0 -1
    outer loop
      vertex 62 63 0
      vertex 61.247 64.5637 0
      vertex 70 68 0
    endloop
  endfacet
  facet normal 0 0 -1
    outer loop
      vertex 58.1981 63.8678 0
      vertex 0 68 0
      vertex 59.555 64.9499 0
    endloop
  endfacet
  facet normal 0 0 -1
    outer loop
      vertex 5 58 0
      vertex 0 68 0
      vertex 8.19806 62.1322 0
    endloop
  endfacet
  facet normal 0 0 -1
    outer loop
      vertex 5 58 0
      vertex 8.19806 62.1322 0
      vertex 9.55496 61.0501 0
    endloop
  endfacet
  facet normal 0 0 -1
    outer loop
      vertex 5 58 0
      vertex 9.55496 61.0501 0
      vertex 11.247 61.4363 0
    endloop
  endfacet
  facet normal 0 0 -1
    outer loop
      vertex 5 58 0
      vertex 11.247 61.4363 0
      vertex 65 58 0
    endloop
  endfacet
  facet normal 0 0 -1
    outer loop
      vertex 12 5 0
      vertex 70 0 0
      vertex 11.247 3.43634 0
    endloop
  endfacet
  facet normal 0 1 0
    outer loop
      vertex 0 68 0
      vertex 0 68 2.5
      vertex 70 68 0
    endloop
  endfacet
  facet normal 0 1 0
    outer loop
      vertex 70 68 0
      vertex 0 68 2.5
      vertex 70 68 2.5
    endloop
  endfacet
  facet normal 0 0 1
    outer loop
      vertex 11.247 3.43634 2.5
      vertex 0 0 2.5
      vertex 70 0 2.5
    endloop
  endfacet
  facet normal 0 0 1
    outer loop
      vertex 70 22.5 2.5
      vertex 67.5 22.5 2.5
      vertex 70 0 2.5
    endloop
  endfacet
  facet normal 0 0 1
    outer loop
      vertex 59.555 61.0501 2.5
      vertex 65 58 2.5
      vertex 61.247 61.4363 2.5
    endloop
  endfacet
  facet normal 0 0 1
    outer loop
      vertex 70 32.5 2.5
      vertex 70 57.5 2.5
      vertex 67.5 32.5 2.5
    endloop
  endfacet
  facet normal 0 0 1
    outer loop
      vertex 70 67.5 2.5
      vertex 70 68 2.5
      vertex 67.5 67.5 2.5
    endloop
  endfacet
  facet normal 0 0 1
    outer loop
      vertex 70 68 2.5
      vertex 0 68 2.5
      vertex 67.5 67.5 2.5
    endloop
  endfacet
  facet normal 0 0 1
    outer loop
      vertex 2.5 67.5 2.5
      vertex 0 68 2.5
      vertex 0 67.5 2.5
    endloop
  endfacet
  facet normal 0 0 1
    outer loop
      vertex 67.5 67.5 2.5
      vertex 0 68 2.5
      vertex 2.5 67.5 2.5
    endloop
  endfacet
  facet normal 0 0 1
    outer loop
      vertex 5 58 2.5
      vertex 2.5 67.5 2.5
      vertex 2.5 57.5 2.5
    endloop
  endfacet
  facet normal 0 0 1
    outer loop
      vertex 0 32.5 2.5
      vertex 2.5 32.5 2.5
      vertex 2.5 57.5 2.5
    endloop
  endfacet
  facet normal 0 0 1
    outer loop
      vertex 65 58 2.5
      vertex 65 10 2.5
      vertex 67.5 22.5 2.5
    endloop
  endfacet
  facet normal 0 0 1
    outer loop
      vertex 5 10 2.5
      vertex 2.5 22.5 2.5
      vertex 0 22.5 2.5
    endloop
  endfacet
  facet normal 0 0 1
    outer loop
      vertex 59.555 3.05014 2.5
      vertex 5 10 2.5
      vertex 70 0 2.5
    endloop
  endfacet
  facet normal 0 0 1
    outer loop
      vertex 0 22.5 2.5
      vertex 0 0 2.5
      vertex 5 10 2.5
    endloop
  endfacet
  facet normal 0 0 1
    outer loop
      vertex 8.19806 62.1322 2.5
      vertex 2.5 67.5 2.5
      vertex 5 58 2.5
    endloop
  endfacet
  facet normal 0 0 1
    outer loop
      vertex 58.1981 4.13223 2.5
      vertex 5 10 2.5
      vertex 59.555 3.05014 2.5
    endloop
  endfacet
  facet normal 0 0 1
    outer loop
      vertex 67.5 57.5 2.5
      vertex 67.5 67.5 2.5
      vertex 65 58 2.5
    endloop
  endfacet
  facet normal 0 0 1
    outer loop
      vertex 67.5 22.5 2.5
      vertex 65 10 2.5
      vertex 70 0 2.5
    endloop
  endfacet
  facet normal 0 0 1
    outer loop
      vertex 11.247 64.5637 2.5
      vertex 12 63 2.5
      vertex 67.5 67.5 2.5
    endloop
  endfacet
  facet normal 0 0 1
    outer loop
      vertex 5 10 2.5
      vertex 0 0 2.5
      vertex 8.19806 4.13223 2.5
    endloop
  endfacet
  facet normal 0 0 1
    outer loop
      vertex 12 5 2.5
      vertex 11.247 3.43634 2.5
      vertex 70 0 2.5
    endloop
  endfacet
  facet normal 0 0 1
    outer loop
      vertex 5 10 2.5
      vertex 8.19806 4.13223 2.5
      vertex 8.19806 5.86777 2.5
    endloop
  endfacet
  facet normal 0 0 1
    outer loop
      vertex 5 10 2.5
      vertex 9.55496 6.94986 2.5
      vertex 70 0 2.5
    endloop
  endfacet
  facet normal 0 0 1
    outer loop
      vertex 5 10 2.5
      vertex 8.19806 5.86777 2.5
      vertex 9.55496 6.94986 2.5
    endloop
  endfacet
  facet normal 0 0 1
    outer loop
      vertex 9.55496 6.94986 2.5
      vertex 11.247 6.56366 2.5
      vertex 70 0 2.5
    endloop
  endfacet
  facet normal 0 0 1
    outer loop
      vertex 9.55496 3.05014 2.5
      vertex 0 0 2.5
      vertex 11.247 3.43634 2.5
    endloop
  endfacet
  facet normal 0 0 1
    outer loop
      vertex 8.19806 4.13223 2.5
      vertex 0 0 2.5
      vertex 9.55496 3.05014 2.5
    endloop
  endfacet
  facet normal 0 0 1
    outer loop
      vertex 9.55496 61.0501 2.5
      vertex 8.19806 62.1322 2.5
      vertex 5 58 2.5
    endloop
  endfacet
  facet normal 0 0 1
    outer loop
      vertex 8.19806 63.8678 2.5
      vertex 2.5 67.5 2.5
      vertex 8.19806 62.1322 2.5
    endloop
  endfacet
  facet normal 0 0 1
    outer loop
      vertex 9.55496 64.9499 2.5
      vertex 2.5 67.5 2.5
      vertex 8.19806 63.8678 2.5
    endloop
  endfacet
  facet normal 0 0 1
    outer loop
      vertex 67.5 67.5 2.5
      vertex 2.5 67.5 2.5
      vertex 9.55496 64.9499 2.5
    endloop
  endfacet
  facet normal 0 0 1
    outer loop
      vertex 12 63 2.5
      vertex 11.247 61.4363 2.5
      vertex 67.5 67.5 2.5
    endloop
  endfacet
  facet normal 0 0 1
    outer loop
      vertex 67.5 67.5 2.5
      vertex 9.55496 64.9499 2.5
      vertex 11.247 64.5637 2.5
    endloop
  endfacet
  facet normal 0 0 1
    outer loop
      vertex 67.5 67.5 2.5
      vertex 11.247 61.4363 2.5
      vertex 5 58 2.5
    endloop
  endfacet
  facet normal 0 0 1
    outer loop
      vertex 11.247 61.4363 2.5
      vertex 9.55496 61.0501 2.5
      vertex 5 58 2.5
    endloop
  endfacet
  facet normal 0 0 1
    outer loop
      vertex 59.555 64.9499 2.5
      vertex 61.247 64.5637 2.5
      vertex 67.5 67.5 2.5
    endloop
  endfacet
  facet normal 0 0 1
    outer loop
      vertex 5 58 2.5
      vertex 58.1981 62.1322 2.5
      vertex 58.1981 63.8678 2.5
    endloop
  endfacet
  facet normal 0 0 1
    outer loop
      vertex 61.247 3.43634 2.5
      vertex 59.555 3.05014 2.5
      vertex 70 0 2.5
    endloop
  endfacet
  facet normal 0 0 1
    outer loop
      vertex 5 58 2.5
      vertex 59.555 61.0501 2.5
      vertex 58.1981 62.1322 2.5
    endloop
  endfacet
  facet normal 0 0 1
    outer loop
      vertex 65 10 2.5
      vertex 61.247 6.56366 2.5
      vertex 70 0 2.5
    endloop
  endfacet
  facet normal 0 0 1
    outer loop
      vertex 61.247 6.56366 2.5
      vertex 62 5 2.5
      vertex 70 0 2.5
    endloop
  endfacet
  facet normal 0 0 1
    outer loop
      vertex 62 5 2.5
      vertex 61.247 3.43634 2.5
      vertex 70 0 2.5
    endloop
  endfacet
  facet normal 0 0 1
    outer loop
      vertex 5 58 2.5
      vertex 58.1981 63.8678 2.5
      vertex 59.555 64.9499 2.5
    endloop
  endfacet
  facet normal 0 0 1
    outer loop
      vertex 5 58 2.5
      vertex 59.555 64.9499 2.5
      vertex 67.5 67.5 2.5
    endloop
  endfacet
  facet normal 0 0 1
    outer loop
      vertex 5 58 2.5
      vertex 65 58 2.5
      vertex 59.555 61.0501 2.5
    endloop
  endfacet
  facet normal 0 0 1
    outer loop
      vertex 65 58 2.5
      vertex 67.5 22.5 2.5
      vertex 67.5 32.5 2.5
    endloop
  endfacet
  facet normal 0 0 1
    outer loop
      vertex 61.247 64.5637 2.5
      vertex 62 63 2.5
      vertex 67.5 67.5 2.5
    endloop
  endfacet
  facet normal 0 0 1
    outer loop
      vertex 65 58 2.5
      vertex 67.5 32.5 2.5
      vertex 67.5 57.5 2.5
    endloop
  endfacet
  facet normal 0 0 1
    outer loop
      vertex 65 10 2.5
      vertex 5 10 2.5
      vertex 59.555 6.94986 2.5
    endloop
  endfacet
  facet normal 0 0 1
    outer loop
      vertex 65 58 2.5
      vertex 67.5 67.5 2.5
      vertex 62 63 2.5
    endloop
  endfacet
  facet normal 0 0 1
    outer loop
      vertex 58.1981 5.86777 2.5
      vertex 5 10 2.5
      vertex 58.1981 4.13223 2.5
    endloop
  endfacet
  facet normal 0 0 1
    outer loop
      vertex 65 58 2.5
      vertex 62 63 2.5
      vertex 61.247 61.4363 2.5
    endloop
  endfacet
  facet normal 0 0 1
    outer loop
      vertex 59.555 6.94986 2.5
      vertex 5 10 2.5
      vertex 58.1981 5.86777 2.5
    endloop
  endfacet
  facet normal 0 0 1
    outer loop
      vertex 2.5 57.5 2.5
      vertex 0 57.5 2.5
      vertex 0 32.5 2.5
    endloop
  endfacet
  facet normal 0 0 1
    outer loop
      vertex 67.5 57.5 2.5
      vertex 67.5 32.5 2.5
      vertex 70 57.5 2.5
    endloop
  endfacet
  facet normal 0 0 1
    outer loop
      vertex 59.555 6.94986 2.5
      vertex 61.247 6.56366 2.5
      vertex 65 10 2.5
    endloop
  endfacet
  facet normal 0 0 1
    outer loop
      vertex 11.247 6.56366 2.5
      vertex 12 5 2.5
      vertex 70 0 2.5
    endloop
  endfacet
  facet normal 0 0 1
    outer loop
      vertex 5 10 2.5
      vertex 2.5 32.5 2.5
      vertex 2.5 22.5 2.5
    endloop
  endfacet
  facet normal 0 0 1
    outer loop
      vertex 5 10 2.5
      vertex 2.5 57.5 2.5
      vertex 2.5 32.5 2.5
    endloop
  endfacet
  facet normal 0 0 1
    outer loop
      vertex 5 10 2.5
      vertex 5 58 2.5
      vertex 2.5 57.5 2.5
    endloop
  endfacet
  facet normal 0 1 0
    outer loop
      vertex 0 67.5 2.5
      vertex 0 67.5 35
      vertex 2.5 67.5 2.5
    endloop
  endfacet
  facet normal 0 1 0
    outer loop
      vertex 2.5 67.5 2.5
      vertex 0 67.5 35
      vertex 2.5 67.5 35
    endloop
  endfacet
  facet normal 0 0 1
    outer loop
      vertex 0 67.5 35
      vertex 0 57.5 35
      vertex 2.5 57.5 35
    endloop
  endfacet
  facet normal 0 0 1
    outer loop
      vertex 2.5 67.5 35
      vertex 0 67.5 35
      vertex 2.5 57.5 35
    endloop
  endfacet
  facet normal 0 -1 0
    outer loop
      vertex 2.5 57.5 2.5
      vertex 2.5 57.5 35
      vertex 0 57.5 35
    endloop
  endfacet
  facet normal 0 -1 0
    outer loop
      vertex 0 57.5 2.5
      vertex 2.5 57.5 2.5
      vertex 0 57.5 35
    endloop
  endfacet
  facet normal 0 1 0
    outer loop
      vertex 2.5 32.5 35
      vertex 2.5 32.5 2.5
      vertex 0 32.5 35
    endloop
  endfacet
  facet normal 0 1 0
    outer loop
      vertex 0 32.5 35
      vertex 2.5 32.5 2.5
      vertex 0 32.5 2.5
    endloop
  endfacet
  facet normal 0 0 1
    outer loop
      vertex 0 32.5 35
      vertex 0 22.5 35
      vertex 2.5 22.5 35
    endloop
  endfacet
  facet normal 0 0 1
    outer loop
      vertex 2.5 32.5 35
      vertex 0 32.5 35
      vertex 2.5 22.5 35
    endloop
  endfacet
  facet normal 0 -1 0
    outer loop
      vertex 0 22.5 35
      vertex 0 22.5 2.5
      vertex 2.5 22.5 2.5
    endloop
  endfacet
  facet normal 0 -1 0
    outer loop
      vertex 2.5 22.5 35
      vertex 0 22.5 35
      vertex 2.5 22.5 2.5
    endloop
  endfacet
  facet normal 3.81778e-17 0.781831 -0.62349
    outer loop
      vertex 2.5 26.6322 31.8019
      vertex 2.5 25.5501 30.445
      vertex 0 26.6322 31.8019
    endloop
  endfacet
  facet normal 3.81778e-17 0.781831 -0.62349
    outer loop
      vertex 0 26.6322 31.8019
      vertex 2.5 25.5501 30.445
      vertex 0 25.5501 30.445
    endloop
  endfacet
  facet normal -1.36255e-17 0.974928 0.222521
    outer loop
      vertex 2.5 25.9363 28.753
      vertex 0 25.9363 28.753
      vertex 2.5 25.5501 30.445
    endloop
  endfacet
  facet normal -1.36255e-17 0.974928 0.222521
    outer loop
      vertex 2.5 25.5501 30.445
      vertex 0 25.9363 28.753
      vertex 0 25.5501 30.445
    endloop
  endfacet
  facet normal 6.12323e-17 0 -1
    outer loop
      vertex 2.5 28.3678 31.8019
      vertex 2.5 26.6322 31.8019
      vertex 0 28.3678 31.8019
    endloop
  endfacet
  facet normal 6.12323e-17 0 -1
    outer loop
      vertex 0 28.3678 31.8019
      vertex 2.5 26.6322 31.8019
      vertex 0 26.6322 31.8019
    endloop
  endfacet
  facet normal 3.81778e-17 -0.781831 -0.62349
    outer loop
      vertex 0 29.4499 30.445
      vertex 2.5 29.4499 30.445
      vertex 2.5 28.3678 31.8019
    endloop
  endfacet
  facet normal 3.81778e-17 -0.781831 -0.62349
    outer loop
      vertex 0 28.3678 31.8019
      vertex 0 29.4499 30.445
      vertex 2.5 28.3678 31.8019
    endloop
  endfacet
  facet normal -1.36255e-17 -0.974928 0.222521
    outer loop
      vertex 2.5 29.0637 28.753
      vertex 2.5 29.4499 30.445
      vertex 0 29.4499 30.445
    endloop
  endfacet
  facet normal -1.36255e-17 -0.974928 0.222521
    outer loop
      vertex 0 29.0637 28.753
      vertex 2.5 29.0637 28.753
      vertex 0 29.4499 30.445
    endloop
  endfacet
  facet normal -5.51684e-17 -0.433884 0.900969
    outer loop
      vertex 2.5 27.5 28
      vertex 2.5 29.0637 28.753
      vertex 0 29.0637 28.753
    endloop
  endfacet
  facet normal -5.51684e-17 -0.433884 0.900969
    outer loop
      vertex 0 27.5 28
      vertex 2.5 27.5 28
      vertex 0 29.0637 28.753
    endloop
  endfacet
  facet normal -5.51684e-17 0.433884 0.900969
    outer loop
      vertex 2.5 25.9363 28.753
      vertex 2.5 27.5 28
      vertex 0 27.5 28
    endloop
  endfacet
  facet normal -5.51684e-17 0.433884 0.900969
    outer loop
      vertex 0 25.9363 28.753
      vertex 2.5 25.9363 28.753
      vertex 0 27.5 28
    endloop
  endfacet
  facet normal 3.81778e-17 0.781831 -0.62349
    outer loop
      vertex 2.5 61.6322 31.8019
      vertex 2.5 60.5501 30.445
      vertex 0 61.6322 31.8019
    endloop
  endfacet
  facet normal 3.81778e-17 0.781831 -0.62349
    outer loop
      vertex 0 61.6322 31.8019
      vertex 2.5 60.5501 30.445
      vertex 0 60.5501 30.445
    endloop
  endfacet
  facet normal -1.36255e-17 0.974928 0.222521
    outer loop
      vertex 2.5 60.9363 28.753
      vertex 0 60.9363 28.753
      vertex 2.5 60.5501 30.445
    endloop
  endfacet
  facet normal -1.36255e-17 0.974928 0.222521
    outer loop
      vertex 2.5 60.5501 30.445
      vertex 0 60.9363 28.753
      vertex 0 60.5501 30.445
    endloop
  endfacet
  facet normal 6.12323e-17 0 -1
    outer loop
      vertex 2.5 63.3678 31.8019
      vertex 2.5 61.6322 31.8019
      vertex 0 63.3678 31.8019
    endloop
  endfacet
  facet normal 6.12323e-17 0 -1
    outer loop
      vertex 0 63.3678 31.8019
      vertex 2.5 61.6322 31.8019
      vertex 0 61.6322 31.8019
    endloop
  endfacet
  facet normal 3.81778e-17 -0.781831 -0.62349
    outer loop
      vertex 0 64.4499 30.445
      vertex 2.5 64.4499 30.445
      vertex 2.5 63.3678 31.8019
    endloop
  endfacet
  facet normal 3.81778e-17 -0.781831 -0.62349
    outer loop
      vertex 0 63.3678 31.8019
      vertex 0 64.4499 30.445
      vertex 2.5 63.3678 31.8019
    endloop
  endfacet
  facet normal -1.36255e-17 -0.974928 0.222521
    outer loop
      vertex 2.5 64.0637 28.753
      vertex 2.5 64.4499 30.445
      vertex 0 64.4499 30.445
    endloop
  endfacet
  facet normal -1.36255e-17 -0.974928 0.222521
    outer loop
      vertex 0 64.0637 28.753
      vertex 2.5 64.0637 28.753
      vertex 0 64.4499 30.445
    endloop
  endfacet
  facet normal -5.51684e-17 -0.433884 0.900969
    outer loop
      vertex 2.5 62.5 28
      vertex 2.5 64.0637 28.753
      vertex 0 64.0637 28.753
    endloop
  endfacet
  facet normal -5.51684e-17 -0.433884 0.900969
    outer loop
      vertex 0 62.5 28
      vertex 2.5 62.5 28
      vertex 0 64.0637 28.753
    endloop
  endfacet
  facet normal -5.51684e-17 0.433884 0.900969
    outer loop
      vertex 2.5 60.9363 28.753
      vertex 2.5 62.5 28
      vertex 0 62.5 28
    endloop
  endfacet
  facet normal -5.51684e-17 0.433884 0.900969
    outer loop
      vertex 0 60.9363 28.753
      vertex 2.5 60.9363 28.753
      vertex 0 62.5 28
    endloop
  endfacet
  facet normal 1 0 0
    outer loop
      vertex 70 0 2.5
      vertex 70 0 0
      vertex 70 68 0
    endloop
  endfacet
  facet normal 1 0 0
    outer loop
      vertex 70 57.5 2.5
      vertex 70 32.5 2.5
      vertex 70 68 0
    endloop
  endfacet
  facet normal 1 0 0
    outer loop
      vertex 70 67.5 2.5
      vertex 70 57.5 2.5
      vertex 70 68 0
    endloop
  endfacet
  facet normal 1 0 0
    outer loop
      vertex 70 68 2.5
      vertex 70 67.5 2.5
      vertex 70 68 0
    endloop
  endfacet
  facet normal 1 0 0
    outer loop
      vertex 70 67.5 35
      vertex 70 57.5 2.5
      vertex 70 67.5 2.5
    endloop
  endfacet
  facet normal 1 0 0
    outer loop
      vertex 70 32.5 2.5
      vertex 70 22.5 2.5
      vertex 70 68 0
    endloop
  endfacet
  facet normal 1 0 0
    outer loop
      vertex 70 22.5 2.5
      vertex 70 0 2.5
      vertex 70 68 0
    endloop
  endfacet
  facet normal 1 0 0
    outer loop
      vertex 70 32.5 2.5
      vertex 70 29.4499 30.445
      vertex 70 29.0637 28.753
    endloop
  endfacet
  facet normal 1 0 0
    outer loop
      vertex 70 25.5501 30.445
      vertex 70 22.5 35
      vertex 70 25.9363 28.753
    endloop
  endfacet
  facet normal 1 0 0
    outer loop
      vertex 70 26.6322 31.8019
      vertex 70 22.5 35
      vertex 70 25.5501 30.445
    endloop
  endfacet
  facet normal 1 0 0
    outer loop
      vertex 70 28.3678 31.8019
      vertex 70 29.4499 30.445
      vertex 70 32.5 35
    endloop
  endfacet
  facet normal 1 0 0
    outer loop
      vertex 70 32.5 35
      vertex 70 22.5 35
      vertex 70 26.6322 31.8019
    endloop
  endfacet
  facet normal 1 0 0
    outer loop
      vertex 70 61.6322 31.8019
      vertex 70 63.3678 31.8019
      vertex 70 67.5 35
    endloop
  endfacet
  facet normal 1 0 0
    outer loop
      vertex 70 26.6322 31.8019
      vertex 70 28.3678 31.8019
      vertex 70 32.5 35
    endloop
  endfacet
  facet normal 1 0 0
    outer loop
      vertex 70 62.5 28
      vertex 70 60.9363 28.753
      vertex 70 57.5 2.5
    endloop
  endfacet
  facet normal 1 0 0
    outer loop
      vertex 70 22.5 35
      vertex 70 22.5 2.5
      vertex 70 25.9363 28.753
    endloop
  endfacet
  facet normal 1 0 0
    outer loop
      vertex 70 63.3678 31.8019
      vertex 70 64.4499 30.445
      vertex 70 67.5 35
    endloop
  endfacet
  facet normal 1 0 0
    outer loop
      vertex 70 32.5 2.5
      vertex 70 29.0637 28.753
      vertex 70 22.5 2.5
    endloop
  endfacet
  facet normal 1 0 0
    outer loop
      vertex 70 32.5 2.5
      vertex 70 32.5 35
      vertex 70 29.4499 30.445
    endloop
  endfacet
  facet normal 1 0 0
    outer loop
      vertex 70 67.5 35
      vertex 70 64.0637 28.753
      vertex 70 57.5 2.5
    endloop
  endfacet
  facet normal 1 0 0
    outer loop
      vertex 70 67.5 35
      vertex 70 64.4499 30.445
      vertex 70 64.0637 28.753
    endloop
  endfacet
  facet normal 1 0 0
    outer loop
      vertex 70 27.5 28
      vertex 70 22.5 2.5
      vertex 70 29.0637 28.753
    endloop
  endfacet
  facet normal 1 0 0
    outer loop
      vertex 70 25.9363 28.753
      vertex 70 22.5 2.5
      vertex 70 27.5 28
    endloop
  endfacet
  facet normal 1 0 0
    outer loop
      vertex 70 57.5 35
      vertex 70 61.6322 31.8019
      vertex 70 67.5 35
    endloop
  endfacet
  facet normal 1 0 0
    outer loop
      vertex 70 57.5 35
      vertex 70 60.5501 30.445
      vertex 70 61.6322 31.8019
    endloop
  endfacet
  facet normal 1 0 0
    outer loop
      vertex 70 64.0637 28.753
      vertex 70 62.5 28
      vertex 70 57.5 2.5
    endloop
  endfacet
  facet normal 1 0 0
    outer loop
      vertex 70 57.5 35
      vertex 70 60.9363 28.753
      vertex 70 60.5501 30.445
    endloop
  endfacet
  facet normal 1 0 0
    outer loop
      vertex 70 57.5 35
      vertex 70 57.5 2.5
      vertex 70 60.9363 28.753
    endloop
  endfacet
  facet normal 1 0 0
    outer loop
      vertex 5 58 0
      vertex 5 58 2.5
      vertex 5 10 2.5
    endloop
  endfacet
  facet normal 1 0 0
    outer loop
      vertex 5 10 0
      vertex 5 58 0
      vertex 5 10 2.5
    endloop
  endfacet
  facet normal 0 -1 0
    outer loop
      vertex 65 58 0
      vertex 65 58 2.5
      vertex 5 58 2.5
    endloop
  endfacet
  facet normal 0 -1 0
    outer loop
      vertex 5 58 0
      vertex 65 58 0
      vertex 5 58 2.5
    endloop
  endfacet
  facet normal -1 0 0
    outer loop
      vertex 65 58 2.5
      vertex 65 58 0
      vertex 65 10 2.5
    endloop
  endfacet
  facet normal -1 0 0
    outer loop
      vertex 65 10 2.5
      vertex 65 58 0
      vertex 65 10 0
    endloop
  endfacet
  facet normal 0 1 0
    outer loop
      vertex 65 10 2.5
      vertex 65 10 0
      vertex 5 10 2.5
    endloop
  endfacet
  facet normal 0 1 0
    outer loop
      vertex 5 10 2.5
      vertex 65 10 0
      vertex 5 10 0
    endloop
  endfacet
  facet normal 1 0 0
    outer loop
      vertex 8.19806 5.86777 0
      vertex 8.19806 5.86777 2.5
      vertex 8.19806 4.13223 2.5
    endloop
  endfacet
  facet normal 1 0 0
    outer loop
      vertex 8.19806 4.13223 0
      vertex 8.19806 5.86777 0
      vertex 8.19806 4.13223 2.5
    endloop
  endfacet
  facet normal 0.62349 -0.781831 0
    outer loop
      vertex 9.55496 6.94986 0
      vertex 9.55496 6.94986 2.5
      vertex 8.19806 5.86777 2.5
    endloop
  endfacet
  facet normal 0.62349 -0.781831 0
    outer loop
      vertex 8.19806 5.86777 0
      vertex 9.55496 6.94986 0
      vertex 8.19806 5.86777 2.5
    endloop
  endfacet
  facet normal -0.222521 -0.974928 0
    outer loop
      vertex 11.247 6.56366 0
      vertex 11.247 6.56366 2.5
      vertex 9.55496 6.94986 2.5
    endloop
  endfacet
  facet normal -0.222521 -0.974928 0
    outer loop
      vertex 9.55496 6.94986 0
      vertex 11.247 6.56366 0
      vertex 9.55496 6.94986 2.5
    endloop
  endfacet
  facet normal -0.900969 -0.433884 0
    outer loop
      vertex 12 5 2.5
      vertex 11.247 6.56366 2.5
      vertex 12 5 0
    endloop
  endfacet
  facet normal -0.900969 -0.433884 0
    outer loop
      vertex 12 5 0
      vertex 11.247 6.56366 2.5
      vertex 11.247 6.56366 0
    endloop
  endfacet
  facet normal -0.900969 0.433884 0
    outer loop
      vertex 12 5 2.5
      vertex 12 5 0
      vertex 11.247 3.43634 2.5
    endloop
  endfacet
  facet normal -0.900969 0.433884 0
    outer loop
      vertex 11.247 3.43634 2.5
      vertex 12 5 0
      vertex 11.247 3.43634 0
    endloop
  endfacet
  facet normal -0.222521 0.974928 0
    outer loop
      vertex 11.247 3.43634 2.5
      vertex 11.247 3.43634 0
      vertex 9.55496 3.05014 2.5
    endloop
  endfacet
  facet normal -0.222521 0.974928 0
    outer loop
      vertex 9.55496 3.05014 2.5
      vertex 11.247 3.43634 0
      vertex 9.55496 3.05014 0
    endloop
  endfacet
  facet normal 0.62349 0.781831 0
    outer loop
      vertex 9.55496 3.05014 2.5
      vertex 9.55496 3.05014 0
      vertex 8.19806 4.13223 2.5
    endloop
  endfacet
  facet normal 0.62349 0.781831 0
    outer loop
      vertex 8.19806 4.13223 2.5
      vertex 9.55496 3.05014 0
      vertex 8.19806 4.13223 0
    endloop
  endfacet
  facet normal 1 0 0
    outer loop
      vertex 8.19806 63.8678 0
      vertex 8.19806 63.8678 2.5
      vertex 8.19806 62.1322 2.5
    endloop
  endfacet
  facet normal 1 0 0
    outer loop
      vertex 8.19806 62.1322 0
      vertex 8.19806 63.8678 0
      vertex 8.19806 62.1322 2.5
    endloop
  endfacet
  facet normal 0.62349 -0.781831 0
    outer loop
      vertex 9.55496 64.9499 0
      vertex 9.55496 64.9499 2.5
      vertex 8.19806 63.8678 2.5
    endloop
  endfacet
  facet normal 0.62349 -0.781831 0
    outer loop
      vertex 8.19806 63.8678 0
      vertex 9.55496 64.9499 0
      vertex 8.19806 63.8678 2.5
    endloop
  endfacet
  facet normal -0.222521 -0.974928 0
    outer loop
      vertex 11.247 64.5637 0
      vertex 11.247 64.5637 2.5
      vertex 9.55496 64.9499 2.5
    endloop
  endfacet
  facet normal -0.222521 -0.974928 0
    outer loop
      vertex 9.55496 64.9499 0
      vertex 11.247 64.5637 0
      vertex 9.55496 64.9499 2.5
    endloop
  endfacet
  facet normal -0.900969 -0.433884 0
    outer loop
      vertex 12 63 2.5
      vertex 11.247 64.5637 2.5
      vertex 12 63 0
    endloop
  endfacet
  facet normal -0.900969 -0.433884 0
    outer loop
      vertex 12 63 0
      vertex 11.247 64.5637 2.5
      vertex 11.247 64.5637 0
    endloop
  endfacet
  facet normal -0.900969 0.433884 0
    outer loop
      vertex 12 63 2.5
      vertex 12 63 0
      vertex 11.247 61.4363 2.5
    endloop
  endfacet
  facet normal -0.900969 0.433884 0
    outer loop
      vertex 11.247 61.4363 2.5
      vertex 12 63 0
      vertex 11.247 61.4363 0
    endloop
  endfacet
  facet normal -0.222521 0.974928 0
    outer loop
      vertex 11.247 61.4363 2.5
      vertex 11.247 61.4363 0
      vertex 9.55496 61.0501 2.5
    endloop
  endfacet
  facet normal -0.222521 0.974928 0
    outer loop
      vertex 9.55496 61.0501 2.5
      vertex 11.247 61.4363 0
      vertex 9.55496 61.0501 0
    endloop
  endfacet
  facet normal 0.62349 0.781831 0
    outer loop
      vertex 9.55496 61.0501 2.5
      vertex 9.55496 61.0501 0
      vertex 8.19806 62.1322 2.5
    endloop
  endfacet
  facet normal 0.62349 0.781831 0
    outer loop
      vertex 8.19806 62.1322 2.5
      vertex 9.55496 61.0501 0
      vertex 8.19806 62.1322 0
    endloop
  endfacet
  facet normal 1 0 0
    outer loop
      vertex 58.1981 5.86777 0
      vertex 58.1981 5.86777 2.5
      vertex 58.1981 4.13223 2.5
    endloop
  endfacet
  facet normal 1 0 0
    outer loop
      vertex 58.1981 4.13223 0
      vertex 58.1981 5.86777 0
      vertex 58.1981 4.13223 2.5
    endloop
  endfacet
  facet normal 0.62349 -0.781831 0
    outer loop
      vertex 59.555 6.94986 0
      vertex 59.555 6.94986 2.5
      vertex 58.1981 5.86777 2.5
    endloop
  endfacet
  facet normal 0.62349 -0.781831 0
    outer loop
      vertex 58.1981 5.86777 0
      vertex 59.555 6.94986 0
      vertex 58.1981 5.86777 2.5
    endloop
  endfacet
  facet normal -0.222521 -0.974928 0
    outer loop
      vertex 61.247 6.56366 0
      vertex 61.247 6.56366 2.5
      vertex 59.555 6.94986 2.5
    endloop
  endfacet
  facet normal -0.222521 -0.974928 0
    outer loop
      vertex 59.555 6.94986 0
      vertex 61.247 6.56366 0
      vertex 59.555 6.94986 2.5
    endloop
  endfacet
  facet normal -0.900969 -0.433884 0
    outer loop
      vertex 62 5 2.5
      vertex 61.247 6.56366 2.5
      vertex 62 5 0
    endloop
  endfacet
  facet normal -0.900969 -0.433884 0
    outer loop
      vertex 62 5 0
      vertex 61.247 6.56366 2.5
      vertex 61.247 6.56366 0
    endloop
  endfacet
  facet normal -0.900969 0.433884 0
    outer loop
      vertex 62 5 2.5
      vertex 62 5 0
      vertex 61.247 3.43634 2.5
    endloop
  endfacet
  facet normal -0.900969 0.433884 0
    outer loop
      vertex 61.247 3.43634 2.5
      vertex 62 5 0
      vertex 61.247 3.43634 0
    endloop
  endfacet
  facet normal -0.222521 0.974928 0
    outer loop
      vertex 61.247 3.43634 2.5
      vertex 61.247 3.43634 0
      vertex 59.555 3.05014 2.5
    endloop
  endfacet
  facet normal -0.222521 0.974928 0
    outer loop
      vertex 59.555 3.05014 2.5
      vertex 61.247 3.43634 0
      vertex 59.555 3.05014 0
    endloop
  endfacet
  facet normal 0.62349 0.781831 0
    outer loop
      vertex 59.555 3.05014 2.5
      vertex 59.555 3.05014 0
      vertex 58.1981 4.13223 2.5
    endloop
  endfacet
  facet normal 0.62349 0.781831 0
    outer loop
      vertex 58.1981 4.13223 2.5
      vertex 59.555 3.05014 0
      vertex 58.1981 4.13223 0
    endloop
  endfacet
  facet normal 1 0 0
    outer loop
      vertex 58.1981 63.8678 0
      vertex 58.1981 63.8678 2.5
      vertex 58.1981 62.1322 2.5
    endloop
  endfacet
  facet normal 1 0 0
    outer loop
      vertex 58.1981 62.1322 0
      vertex 58.1981 63.8678 0
      vertex 58.1981 62.1322 2.5
    endloop
  endfacet
  facet normal 0.62349 -0.781831 0
    outer loop
      vertex 59.555 64.9499 0
      vertex 59.555 64.9499 2.5
      vertex 58.1981 63.8678 2.5
    endloop
  endfacet
  facet normal 0.62349 -0.781831 0
    outer loop
      vertex 58.1981 63.8678 0
      vertex 59.555 64.9499 0
      vertex 58.1981 63.8678 2.5
    endloop
  endfacet
  facet normal -0.222521 -0.974928 0
    outer loop
      vertex 61.247 64.5637 0
      vertex 61.247 64.5637 2.5
      vertex 59.555 64.9499 2.5
    endloop
  endfacet
  facet normal -0.222521 -0.974928 0
    outer loop
      vertex 59.555 64.9499 0
      vertex 61.247 64.5637 0
      vertex 59.555 64.9499 2.5
    endloop
  endfacet
  facet normal -0.900969 -0.433884 0
    outer loop
      vertex 62 63 2.5
      vertex 61.247 64.5637 2.5
      vertex 62 63 0
    endloop
  endfacet
  facet normal -0.900969 -0.433884 0
    outer loop
      vertex 62 63 0
      vertex 61.247 64.5637 2.5
      vertex 61.247 64.5637 0
    endloop
  endfacet
  facet normal -0.900969 0.433884 0
    outer loop
      vertex 62 63 2.5
      vertex 62 63 0
      vertex 61.247 61.4363 2.5
    endloop
  endfacet
  facet normal -0.900969 0.433884 0
    outer loop
      vertex 61.247 61.4363 2.5
      vertex 62 63 0
      vertex 61.247 61.4363 0
    endloop
  endfacet
  facet normal -0.222521 0.974928 0
    outer loop
      vertex 61.247 61.4363 2.5
      vertex 61.247 61.4363 0
      vertex 59.555 61.0501 2.5
    endloop
  endfacet
  facet normal -0.222521 0.974928 0
    outer loop
      vertex 59.555 61.0501 2.5
      vertex 61.247 61.4363 0
      vertex 59.555 61.0501 0
    endloop
  endfacet
  facet normal 0.62349 0.781831 0
    outer loop
      vertex 59.555 61.0501 2.5
      vertex 59.555 61.0501 0
      vertex 58.1981 62.1322 2.5
    endloop
  endfacet
  facet normal 0.62349 0.781831 0
    outer loop
      vertex 58.1981 62.1322 2.5
      vertex 59.555 61.0501 0
      vertex 58.1981 62.1322 0
    endloop
  endfacet
  facet normal 1 0 0
    outer loop
      vertex 2.5 22.5 35
      vertex 2.5 22.5 2.5
      vertex 2.5 32.5 2.5
    endloop
  endfacet
  facet normal 1 0 0
    outer loop
      vertex 2.5 25.9363 28.753
      vertex 2.5 22.5 35
      vertex 2.5 32.5 2.5
    endloop
  endfacet
  facet normal 1 0 0
    outer loop
      vertex 2.5 27.5 28
      vertex 2.5 25.9363 28.753
      vertex 2.5 32.5 2.5
    endloop
  endfacet
  facet normal 1 0 0
    outer loop
      vertex 2.5 25.5501 30.445
      vertex 2.5 22.5 35
      vertex 2.5 25.9363 28.753
    endloop
  endfacet
  facet normal 1 0 0
    outer loop
      vertex 2.5 26.6322 31.8019
      vertex 2.5 22.5 35
      vertex 2.5 25.5501 30.445
    endloop
  endfacet
  facet normal 1 0 0
    outer loop
      vertex 2.5 28.3678 31.8019
      vertex 2.5 29.4499 30.445
      vertex 2.5 32.5 35
    endloop
  endfacet
  facet normal 1 0 0
    outer loop
      vertex 2.5 32.5 35
      vertex 2.5 22.5 35
      vertex 2.5 26.6322 31.8019
    endloop
  endfacet
  facet normal 1 0 0
    outer loop
      vertex 2.5 32.5 35
      vertex 2.5 29.4499 30.445
      vertex 2.5 32.5 2.5
    endloop
  endfacet
  facet normal 1 0 0
    outer loop
      vertex 2.5 29.4499 30.445
      vertex 2.5 29.0637 28.753
      vertex 2.5 32.5 2.5
    endloop
  endfacet
  facet normal 1 0 0
    outer loop
      vertex 2.5 29.0637 28.753
      vertex 2.5 27.5 28
      vertex 2.5 32.5 2.5
    endloop
  endfacet
  facet normal 1 0 0
    outer loop
      vertex 2.5 26.6322 31.8019
      vertex 2.5 28.3678 31.8019
      vertex 2.5 32.5 35
    endloop
  endfacet
  facet normal 1 0 0
    outer loop
      vertex 2.5 57.5 35
      vertex 2.5 57.5 2.5
      vertex 2.5 67.5 2.5
    endloop
  endfacet
  facet normal 1 0 0
    outer loop
      vertex 2.5 60.9363 28.753
      vertex 2.5 57.5 35
      vertex 2.5 67.5 2.5
    endloop
  endfacet
  facet normal 1 0 0
    outer loop
      vertex 2.5 62.5 28
      vertex 2.5 60.9363 28.753
      vertex 2.5 67.5 2.5
    endloop
  endfacet
  facet normal 1 0 0
    outer loop
      vertex 2.5 60.5501 30.445
      vertex 2.5 57.5 35
      vertex 2.5 60.9363 28.753
    endloop
  endfacet
  facet normal 1 0 0
    outer loop
      vertex 2.5 61.6322 31.8019
      vertex 2.5 57.5 35
      vertex 2.5 60.5501 30.445
    endloop
  endfacet
  facet normal 1 0 0
    outer loop
      vertex 2.5 63.3678 31.8019
      vertex 2.5 64.4499 30.445
      vertex 2.5 67.5 35
    endloop
  endfacet
  facet normal 1 0 0
    outer loop
      vertex 2.5 67.5 35
      vertex 2.5 57.5 35
      vertex 2.5 61.6322 31.8019
    endloop
  endfacet
  facet normal 1 0 0
    outer loop
      vertex 2.5 67.5 35
      vertex 2.5 64.4499 30.445
      vertex 2.5 67.5 2.5
    endloop
  endfacet
  facet normal 1 0 0
    outer loop
      vertex 2.5 64.4499 30.445
      vertex 2.5 64.0637 28.753
      vertex 2.5 67.5 2.5
    endloop
  endfacet
  facet normal 1 0 0
    outer loop
      vertex 2.5 64.0637 28.753
      vertex 2.5 62.5 28
      vertex 2.5 67.5 2.5
    endloop
  endfacet
  facet normal 1 0 0
    outer loop
      vertex 2.5 61.6322 31.8019
      vertex 2.5 63.3678 31.8019
      vertex 2.5 67.5 35
    endloop
  endfacet
  facet normal 0 1 0
    outer loop
      vertex 67.5 67.5 2.5
      vertex 67.5 67.5 35
      vertex 70 67.5 2.5
    endloop
  endfacet
  facet normal 0 1 0
    outer loop
      vertex 70 67.5 2.5
      vertex 67.5 67.5 35
      vertex 70 67.5 35
    endloop
  endfacet
  facet normal -1 0 0
    outer loop
      vertex 67.5 57.5 2.5
      vertex 67.5 57.5 35
      vertex 67.5 67.5 2.5
    endloop
  endfacet
  facet normal -1 0 0
    outer loop
      vertex 67.5 61.6322 31.8019
      vertex 67.5 57.5 35
      vertex 67.5 67.5 35
    endloop
  endfacet
  facet normal -1 0 0
    outer loop
      vertex 67.5 60.9363 28.753
      vertex 67.5 57.5 35
      vertex 67.5 60.5501 30.445
    endloop
  endfacet
  facet normal -1 0 0
    outer loop
      vertex 67.5 67.5 2.5
      vertex 67.5 57.5 35
      vertex 67.5 60.9363 28.753
    endloop
  endfacet
  facet normal -1 0 0
    outer loop
      vertex 67.5 63.3678 31.8019
      vertex 67.5 67.5 35
      vertex 67.5 64.4499 30.445
    endloop
  endfacet
  facet normal -1 0 0
    outer loop
      vertex 67.5 67.5 2.5
      vertex 67.5 62.5 28
      vertex 67.5 64.0637 28.753
    endloop
  endfacet
  facet normal -1 0 0
    outer loop
      vertex 67.5 67.5 2.5
      vertex 67.5 64.0637 28.753
      vertex 67.5 67.5 35
    endloop
  endfacet
  facet normal -1 0 0
    outer loop
      vertex 67.5 64.0637 28.753
      vertex 67.5 64.4499 30.445
      vertex 67.5 67.5 35
    endloop
  endfacet
  facet normal -1 0 0
    outer loop
      vertex 67.5 61.6322 31.8019
      vertex 67.5 67.5 35
      vertex 67.5 63.3678 31.8019
    endloop
  endfacet
  facet normal -1 0 0
    outer loop
      vertex 67.5 60.5501 30.445
      vertex 67.5 57.5 35
      vertex 67.5 61.6322 31.8019
    endloop
  endfacet
  facet normal -1 0 0
    outer loop
      vertex 67.5 62.5 28
      vertex 67.5 67.5 2.5
      vertex 67.5 60.9363 28.753
    endloop
  endfacet
  facet normal 0 -1 0
    outer loop
      vertex 70 57.5 2.5
      vertex 70 57.5 35
      vertex 67.5 57.5 35
    endloop
  endfacet
  facet normal 0 -1 0
    outer loop
      vertex 67.5 57.5 2.5
      vertex 70 57.5 2.5
      vertex 67.5 57.5 35
    endloop
  endfacet
  facet normal 0 1 0
    outer loop
      vertex 70 32.5 35
      vertex 70 32.5 2.5
      vertex 67.5 32.5 35
    endloop
  endfacet
  facet normal 0 1 0
    outer loop
      vertex 67.5 32.5 35
      vertex 70 32.5 2.5
      vertex 67.5 32.5 2.5
    endloop
  endfacet
  facet normal -1 0 0
    outer loop
      vertex 67.5 22.5 2.5
      vertex 67.5 22.5 35
      vertex 67.5 32.5 2.5
    endloop
  endfacet
  facet normal -1 0 0
    outer loop
      vertex 67.5 26.6322 31.8019
      vertex 67.5 22.5 35
      vertex 67.5 32.5 35
    endloop
  endfacet
  facet normal -1 0 0
    outer loop
      vertex 67.5 25.9363 28.753
      vertex 67.5 22.5 35
      vertex 67.5 25.5501 30.445
    endloop
  endfacet
  facet normal -1 0 0
    outer loop
      vertex 67.5 32.5 2.5
      vertex 67.5 22.5 35
      vertex 67.5 25.9363 28.753
    endloop
  endfacet
  facet normal -1 0 0
    outer loop
      vertex 67.5 28.3678 31.8019
      vertex 67.5 32.5 35
      vertex 67.5 29.4499 30.445
    endloop
  endfacet
  facet normal -1 0 0
    outer loop
      vertex 67.5 32.5 2.5
      vertex 67.5 27.5 28
      vertex 67.5 29.0637 28.753
    endloop
  endfacet
  facet normal -1 0 0
    outer loop
      vertex 67.5 32.5 2.5
      vertex 67.5 29.0637 28.753
      vertex 67.5 32.5 35
    endloop
  endfacet
  facet normal -1 0 0
    outer loop
      vertex 67.5 29.0637 28.753
      vertex 67.5 29.4499 30.445
      vertex 67.5 32.5 35
    endloop
  endfacet
  facet normal -1 0 0
    outer loop
      vertex 67.5 26.6322 31.8019
      vertex 67.5 32.5 35
      vertex 67.5 28.3678 31.8019
    endloop
  endfacet
  facet normal -1 0 0
    outer loop
      vertex 67.5 25.5501 30.445
      vertex 67.5 22.5 35
      vertex 67.5 26.6322 31.8019
    endloop
  endfacet
  facet normal -1 0 0
    outer loop
      vertex 67.5 27.5 28
      vertex 67.5 32.5 2.5
      vertex 67.5 25.9363 28.753
    endloop
  endfacet
  facet normal 0 -1 0
    outer loop
      vertex 67.5 22.5 35
      vertex 67.5 22.5 2.5
      vertex 70 22.5 2.5
    endloop
  endfacet
  facet normal 0 -1 0
    outer loop
      vertex 70 22.5 35
      vertex 67.5 22.5 35
      vertex 70 22.5 2.5
    endloop
  endfacet
  facet normal 0 0 1
    outer loop
      vertex 67.5 32.5 35
      vertex 67.5 22.5 35
      vertex 70 22.5 35
    endloop
  endfacet
  facet normal 0 0 1
    outer loop
      vertex 70 32.5 35
      vertex 67.5 32.5 35
      vertex 70 22.5 35
    endloop
  endfacet
  facet normal 0 0 1
    outer loop
      vertex 67.5 67.5 35
      vertex 67.5 57.5 35
      vertex 70 57.5 35
    endloop
  endfacet
  facet normal 0 0 1
    outer loop
      vertex 70 67.5 35
      vertex 67.5 67.5 35
      vertex 70 57.5 35
    endloop
  endfacet
  facet normal -5.51684e-17 0.433884 0.900969
    outer loop
      vertex 70 25.9363 28.753
      vertex 70 27.5 28
      vertex 67.5 27.5 28
    endloop
  endfacet
  facet normal -5.51684e-17 0.433884 0.900969
    outer loop
      vertex 67.5 25.9363 28.753
      vertex 70 25.9363 28.753
      vertex 67.5 27.5 28
    endloop
  endfacet
  facet normal -1.36255e-17 0.974928 0.222521
    outer loop
      vertex 70 25.9363 28.753
      vertex 67.5 25.9363 28.753
      vertex 70 25.5501 30.445
    endloop
  endfacet
  facet normal -1.36255e-17 0.974928 0.222521
    outer loop
      vertex 70 25.5501 30.445
      vertex 67.5 25.9363 28.753
      vertex 67.5 25.5501 30.445
    endloop
  endfacet
  facet normal -5.51684e-17 -0.433884 0.900969
    outer loop
      vertex 70 27.5 28
      vertex 70 29.0637 28.753
      vertex 67.5 29.0637 28.753
    endloop
  endfacet
  facet normal -5.51684e-17 -0.433884 0.900969
    outer loop
      vertex 67.5 27.5 28
      vertex 70 27.5 28
      vertex 67.5 29.0637 28.753
    endloop
  endfacet
  facet normal -1.36255e-17 -0.974928 0.222521
    outer loop
      vertex 70 29.0637 28.753
      vertex 70 29.4499 30.445
      vertex 67.5 29.4499 30.445
    endloop
  endfacet
  facet normal -1.36255e-17 -0.974928 0.222521
    outer loop
      vertex 67.5 29.0637 28.753
      vertex 70 29.0637 28.753
      vertex 67.5 29.4499 30.445
    endloop
  endfacet
  facet normal 3.81778e-17 -0.781831 -0.62349
    outer loop
      vertex 67.5 29.4499 30.445
      vertex 70 29.4499 30.445
      vertex 70 28.3678 31.8019
    endloop
  endfacet
  facet normal 3.81778e-17 -0.781831 -0.62349
    outer loop
      vertex 67.5 28.3678 31.8019
      vertex 67.5 29.4499 30.445
      vertex 70 28.3678 31.8019
    endloop
  endfacet
  facet normal 6.12323e-17 0 -1
    outer loop
      vertex 70 28.3678 31.8019
      vertex 70 26.6322 31.8019
      vertex 67.5 28.3678 31.8019
    endloop
  endfacet
  facet normal 6.12323e-17 0 -1
    outer loop
      vertex 67.5 28.3678 31.8019
      vertex 70 26.6322 31.8019
      vertex 67.5 26.6322 31.8019
    endloop
  endfacet
  facet normal 3.81778e-17 0.781831 -0.62349
    outer loop
      vertex 70 26.6322 31.8019
      vertex 70 25.5501 30.445
      vertex 67.5 26.6322 31.8019
    endloop
  endfacet
  facet normal 3.81778e-17 0.781831 -0.62349
    outer loop
      vertex 67.5 26.6322 31.8019
      vertex 70 25.5501 30.445
      vertex 67.5 25.5501 30.445
    endloop
  endfacet
  facet normal -1.36255e-17 0.974928 0.222521
    outer loop
      vertex 70 60.9363 28.753
      vertex 67.5 60.9363 28.753
      vertex 70 60.5501 30.445
    endloop
  endfacet
  facet normal -1.36255e-17 0.974928 0.222521
    outer loop
      vertex 70 60.5501 30.445
      vertex 67.5 60.9363 28.753
      vertex 67.5 60.5501 30.445
    endloop
  endfacet
  facet normal -5.51684e-17 0.433884 0.900969
    outer loop
      vertex 70 60.9363 28.753
      vertex 70 62.5 28
      vertex 67.5 62.5 28
    endloop
  endfacet
  facet normal -5.51684e-17 0.433884 0.900969
    outer loop
      vertex 67.5 60.9363 28.753
      vertex 70 60.9363 28.753
      vertex 67.5 62.5 28
    endloop
  endfacet
  facet normal -5.51684e-17 -0.433884 0.900969
    outer loop
      vertex 70 62.5 28
      vertex 70 64.0637 28.753
      vertex 67.5 64.0637 28.753
    endloop
  endfacet
  facet normal -5.51684e-17 -0.433884 0.900969
    outer loop
      vertex 67.5 62.5 28
      vertex 70 62.5 28
      vertex 67.5 64.0637 28.753
    endloop
  endfacet
  facet normal -1.36255e-17 -0.974928 0.222521
    outer loop
      vertex 70 64.0637 28.753
      vertex 70 64.4499 30.445
      vertex 67.5 64.4499 30.445
    endloop
  endfacet
  facet normal -1.36255e-17 -0.974928 0.222521
    outer loop
      vertex 67.5 64.0637 28.753
      vertex 70 64.0637 28.753
      vertex 67.5 64.4499 30.445
    endloop
  endfacet
  facet normal 3.81778e-17 -0.781831 -0.62349
    outer loop
      vertex 67.5 64.4499 30.445
      vertex 70 64.4499 30.445
      vertex 70 63.3678 31.8019
    endloop
  endfacet
  facet normal 3.81778e-17 -0.781831 -0.62349
    outer loop
      vertex 67.5 63.3678 31.8019
      vertex 67.5 64.4499 30.445
      vertex 70 63.3678 31.8019
    endloop
  endfacet
  facet normal 6.12323e-17 0 -1
    outer loop
      vertex 70 63.3678 31.8019
      vertex 70 61.6322 31.8019
      vertex 67.5 63.3678 31.8019
    endloop
  endfacet
  facet normal 6.12323e-17 0 -1
    outer loop
      vertex 67.5 63.3678 31.8019
      vertex 70 61.6322 31.8019
      vertex 67.5 61.6322 31.8019
    endloop
  endfacet
  facet normal 3.81778e-17 0.781831 -0.62349
    outer loop
      vertex 70 61.6322 31.8019
      vertex 70 60.5501 30.445
      vertex 67.5 61.6322 31.8019
    endloop
  endfacet
  facet normal 3.81778e-17 0.781831 -0.62349
    outer loop
      vertex 67.5 61.6322 31.8019
      vertex 70 60.5501 30.445
      vertex 67.5 60.5501 30.445
    endloop
  endfacet
endsolid OpenSCAD_Model
